Reglo-04.ufo
<glyph name="exclam" format="1">
  <advance width="520"/>
  <unicode hex="0021"/>
  <outline>
    <contour>
      <point x="330" y="260" type="line"/>
      <point x="330" y="800" type="line"/>
      <point x="190" y="800" type="line"/>
      <point x="190" y="260" type="line"/>
    </contour>
    <contour>
      <point x="160" y="100" type="curve" smooth="yes"/>
      <point x="160" y="45"/>
      <point x="205" y="0"/>
      <point x="260" y="0" type="curve" smooth="yes"/>
      <point x="315" y="0"/>
      <point x="360" y="45"/>
      <point x="360" y="100" type="curve" smooth="yes"/>
      <point x="360" y="155"/>
      <point x="315" y="200"/>
      <point x="260" y="200" type="curve" smooth="yes"/>
      <point x="205" y="200"/>
      <point x="160" y="155"/>
    </contour>
  </outline>
</glyph>
<glyph name="numbersign" format="1">
  <advance width="580"/>
  <unicode hex="0023"/>
  <outline>
    <contour>
      <point x="200" y="0" type="line"/>
      <point x="306" y="800" type="line"/>
      <point x="166" y="800" type="line"/>
      <point x="60" y="0" type="line"/>
    </contour>
    <contour>
      <point x="414" y="0" type="line"/>
      <point x="520" y="800" type="line"/>
      <point x="380" y="800" type="line"/>
      <point x="274" y="0" type="line"/>
    </contour>
    <contour>
      <point x="50" y="236" type="line"/>
      <point x="530" y="236" type="line"/>
      <point x="530" y="364" type="line"/>
      <point x="50" y="364" type="line"/>
    </contour>
    <contour>
      <point x="50" y="436" type="line"/>
      <point x="530" y="436" type="line"/>
      <point x="530" y="564" type="line"/>
      <point x="50" y="564" type="line"/>
    </contour>
  </outline>
</glyph>
<glyph name="ampersand" format="1">
  <advance width="688"/>
  <unicode hex="0026"/>
  <outline>
    <contour>
      <point x="345" y="332" type="line"/>
      <point x="285" y="332" type="line" smooth="yes"/>
      <point x="240" y="332"/>
      <point x="191" y="293"/>
      <point x="191" y="241" type="curve" smooth="yes"/>
      <point x="191" y="183"/>
      <point x="232" y="141"/>
      <point x="291" y="141" type="curve" smooth="yes"/>
      <point x="347" y="141"/>
      <point x="392" y="191"/>
      <point x="392" y="241" type="curve"/>
      <point x="533" y="241" type="line"/>
      <point x="533" y="108"/>
      <point x="425" y="0"/>
      <point x="291" y="0" type="curve" smooth="yes"/>
      <point x="158" y="0"/>
      <point x="50" y="108"/>
      <point x="50" y="241" type="curve" smooth="yes"/>
      <point x="50" y="303"/>
      <point x="73" y="360"/>
      <point x="112" y="402" type="curve"/>
      <point x="73" y="445"/>
      <point x="50" y="502"/>
      <point x="50" y="564" type="curve" smooth="yes"/>
      <point x="50" y="697"/>
      <point x="158" y="805"/>
      <point x="291" y="805" type="curve" smooth="yes"/>
      <point x="425" y="805"/>
      <point x="533" y="697"/>
      <point x="533" y="564" type="curve"/>
      <point x="382" y="564" type="line"/>
      <point x="382" y="613"/>
      <point x="345" y="664"/>
      <point x="291" y="664" type="curve" smooth="yes"/>
      <point x="233" y="664"/>
      <point x="191" y="622"/>
      <point x="191" y="564" type="curve" smooth="yes"/>
      <point x="191" y="512"/>
      <point x="239" y="474"/>
      <point x="284" y="473" type="curve"/>
      <point x="345" y="473" type="line"/>
    </contour>
    <contour>
      <point x="345" y="473" type="line"/>
      <point x="638" y="473" type="line"/>
      <point x="638" y="332" type="line"/>
      <point x="345" y="332" type="line"/>
    </contour>
    <contour>
      <point x="392" y="353" type="line"/>
      <point x="533" y="353" type="line"/>
      <point x="533" y="241" type="line"/>
      <point x="392" y="241" type="line"/>
    </contour>
    <contour>
      <point x="533" y="242" type="line"/>
      <point x="533" y="188"/>
      <point x="580" y="141"/>
      <point x="634" y="141" type="curve"/>
      <point x="634" y="0" type="line"/>
      <point x="500" y="0"/>
      <point x="392" y="108"/>
      <point x="392" y="242" type="curve"/>
    </contour>
  </outline>
</glyph>
<glyph name="quotesingle" format="1">
  <advance width="520"/>
  <unicode hex="0027"/>
  <outline>
    <contour>
      <point x="108" y="521" type="line"/>
      <point x="246" y="521" type="line"/>
      <point x="346" y="800" type="line"/>
      <point x="188" y="800" type="line"/>
    </contour>
  </outline>
</glyph>
<glyph name="parenleft" format="1">
  <advance width="520"/>
  <unicode hex="0028"/>
  <outline>
    <contour>
      <point x="388" y="800" type="line"/>
      <point x="341" y="800" type="line" smooth="yes"/>
      <point x="225" y="800"/>
      <point x="131" y="706"/>
      <point x="131" y="590" type="curve" smooth="yes"/>
      <point x="131" y="160" type="line" smooth="yes"/>
      <point x="131" y="44"/>
      <point x="225" y="-50"/>
      <point x="341" y="-50" type="curve" smooth="yes"/>
      <point x="388" y="-50" type="line"/>
      <point x="388" y="90" type="line"/>
      <point x="341" y="90" type="line" smooth="yes"/>
      <point x="301" y="90"/>
      <point x="271" y="120"/>
      <point x="271" y="160" type="curve" smooth="yes"/>
      <point x="271" y="590" type="line" smooth="yes"/>
      <point x="271" y="629"/>
      <point x="305" y="660"/>
      <point x="341" y="660" type="curve" smooth="yes"/>
      <point x="388" y="660" type="line"/>
    </contour>
  </outline>
</glyph>
<glyph name="parenright" format="1">
  <advance width="520"/>
  <unicode hex="0029"/>
  <outline>
    <contour>
      <point x="130" y="90" type="line"/>
      <point x="130" y="-50" type="line"/>
      <point x="177" y="-50" type="line" smooth="yes"/>
      <point x="293" y="-50"/>
      <point x="387" y="44"/>
      <point x="387" y="160" type="curve" smooth="yes"/>
      <point x="387" y="590" type="line" smooth="yes"/>
      <point x="387" y="706"/>
      <point x="293" y="800"/>
      <point x="177" y="800" type="curve" smooth="yes"/>
      <point x="130" y="800" type="line"/>
      <point x="130" y="660" type="line"/>
      <point x="177" y="660" type="line" smooth="yes"/>
      <point x="214" y="660"/>
      <point x="247" y="629"/>
      <point x="247" y="590" type="curve" smooth="yes"/>
      <point x="247" y="160" type="line" smooth="yes"/>
      <point x="247" y="121"/>
      <point x="217" y="90"/>
      <point x="177" y="90" type="curve" smooth="yes"/>
    </contour>
  </outline>
</glyph>
<glyph name="plus" format="1">
  <advance width="520"/>
  <unicode hex="002B"/>
  <outline>
    <contour>
      <point x="190" y="530" type="line"/>
      <point x="190" y="390" type="line"/>
      <point x="50" y="390" type="line"/>
      <point x="50" y="250" type="line"/>
      <point x="190" y="250" type="line"/>
      <point x="190" y="110" type="line"/>
      <point x="330" y="110" type="line"/>
      <point x="330" y="250" type="line"/>
      <point x="470" y="250" type="line"/>
      <point x="470" y="390" type="line"/>
      <point x="330" y="390" type="line"/>
      <point x="330" y="530" type="line"/>
    </contour>
  </outline>
</glyph>
<glyph name="comma" format="1">
  <advance width="298"/>
  <unicode hex="002C"/>
  <outline>
    <contour>
      <point x="20" y="-79" type="line"/>
      <point x="158" y="-79" type="line"/>
      <point x="258" y="200" type="line"/>
      <point x="100" y="200" type="line"/>
    </contour>
  </outline>
</glyph>
<glyph name="hyphen" format="1">
  <advance width="520"/>
  <unicode hex="002D"/>
  <outline>
    <contour>
      <point x="470" y="250" type="line"/>
      <point x="470" y="390" type="line"/>
      <point x="50" y="390" type="line"/>
      <point x="50" y="250" type="line"/>
    </contour>
  </outline>
</glyph>
<glyph name="period" format="1">
  <advance width="280"/>
  <unicode hex="002E"/>
  <outline>
    <contour>
      <point x="40" y="100" type="curve" smooth="yes"/>
      <point x="40" y="45"/>
      <point x="84" y="0"/>
      <point x="140" y="0" type="curve" smooth="yes"/>
      <point x="195" y="0"/>
      <point x="240" y="45"/>
      <point x="240" y="100" type="curve" smooth="yes"/>
      <point x="240" y="155"/>
      <point x="195" y="200"/>
      <point x="140" y="200" type="curve" smooth="yes"/>
      <point x="84" y="200"/>
      <point x="40" y="155"/>
    </contour>
  </outline>
</glyph>
<glyph name="slash" format="1">
  <advance width="520"/>
  <unicode hex="002F"/>
  <outline>
    <contour>
      <point x="190" y="0" type="line"/>
      <point x="510" y="800" type="line"/>
      <point x="370" y="800" type="line"/>
      <point x="50" y="0" type="line"/>
    </contour>
  </outline>
</glyph>
<glyph name="zero" format="1">
  <advance width="580"/>
  <unicode hex="0030"/>
  <outline>
    <contour>
      <point x="390" y="564" type="line"/>
      <point x="389" y="619"/>
      <point x="343" y="665"/>
      <point x="289" y="665" type="curve" smooth="yes"/>
      <point x="235" y="665"/>
      <point x="190" y="617"/>
      <point x="190" y="564" type="curve"/>
      <point x="50" y="564" type="line"/>
      <point x="50" y="697"/>
      <point x="158" y="805"/>
      <point x="289" y="805" type="curve" smooth="yes"/>
      <point x="422" y="805"/>
      <point x="530" y="697"/>
      <point x="530" y="564" type="curve"/>
    </contour>
    <contour>
      <point x="50" y="234" type="curve"/>
      <point x="50" y="564" type="line"/>
      <point x="190" y="564" type="line"/>
      <point x="190" y="234" type="line"/>
      <point x="191" y="170"/>
      <point x="236" y="135"/>
      <point x="289" y="135" type="curve" smooth="yes"/>
      <point x="344" y="135"/>
      <point x="390" y="182"/>
      <point x="390" y="234" type="curve"/>
      <point x="530" y="234" type="line"/>
      <point x="530" y="103"/>
      <point x="422" y="-5"/>
      <point x="289" y="-5" type="curve" smooth="yes"/>
      <point x="158" y="-5"/>
      <point x="50" y="103"/>
    </contour>
    <contour>
      <point x="530" y="234" type="line"/>
      <point x="390" y="234" type="line"/>
      <point x="390" y="564" type="line"/>
      <point x="530" y="564" type="line"/>
    </contour>
    <contour>
      <point x="87" y="129" type="line"/>
      <point x="366" y="678" type="line"/>
      <point x="486" y="678" type="line"/>
      <point x="207" y="129" type="line"/>
    </contour>
  </outline>
</glyph>
<glyph name="one" format="1">
  <advance width="580"/>
  <unicode hex="0031"/>
  <outline>
    <contour>
      <point x="530" y="140" type="line"/>
      <point x="360" y="140" type="line"/>
      <point x="360" y="800" type="line"/>
      <point x="50" y="800" type="line"/>
      <point x="50" y="660" type="line"/>
      <point x="220" y="660" type="line"/>
      <point x="220" y="140" type="line"/>
      <point x="50" y="140" type="line"/>
      <point x="50" y="0" type="line"/>
      <point x="530" y="0" type="line"/>
    </contour>
  </outline>
</glyph>
<glyph name="two" format="1">
  <advance width="583"/>
  <unicode hex="0032"/>
  <outline>
    <contour>
      <point x="533" y="563" type="curve" smooth="yes"/>
      <point x="533" y="697"/>
      <point x="425" y="805"/>
      <point x="292" y="805" type="curve" smooth="yes"/>
      <point x="158" y="805"/>
      <point x="50" y="697"/>
      <point x="50" y="563" type="curve"/>
      <point x="191" y="563" type="line"/>
      <point x="191" y="618"/>
      <point x="238" y="664"/>
      <point x="292" y="664" type="curve" smooth="yes"/>
      <point x="345" y="664"/>
      <point x="392" y="617"/>
      <point x="392" y="563" type="curve" smooth="yes"/>
      <point x="392" y="490"/>
      <point x="331" y="451"/>
      <point x="292" y="433" type="curve" smooth="yes"/>
      <point x="122" y="354"/>
      <point x="50" y="235"/>
      <point x="50" y="111" type="curve" smooth="yes"/>
      <point x="50" y="0" type="line"/>
      <point x="533" y="0" type="line"/>
      <point x="533" y="141" type="line"/>
      <point x="204" y="141" type="line"/>
      <point x="204" y="227"/>
      <point x="294" y="289"/>
      <point x="333" y="310" type="curve" smooth="yes"/>
      <point x="395" y="343"/>
      <point x="533" y="386"/>
    </contour>
  </outline>
</glyph>
<glyph name="three" format="1">
  <advance width="583"/>
  <unicode hex="0033"/>
  <outline>
    <contour>
      <point x="238" y="332" type="line"/>
      <point x="298" y="332" type="line"/>
      <point x="343" y="332"/>
      <point x="392" y="293"/>
      <point x="392" y="241" type="curve" smooth="yes"/>
      <point x="392" y="183"/>
      <point x="351" y="141"/>
      <point x="292" y="141" type="curve" smooth="yes"/>
      <point x="236" y="141"/>
      <point x="191" y="191"/>
      <point x="191" y="241" type="curve"/>
      <point x="50" y="241" type="line"/>
      <point x="50" y="108"/>
      <point x="158" y="0"/>
      <point x="292" y="0" type="curve" smooth="yes"/>
      <point x="425" y="0"/>
      <point x="533" y="108"/>
      <point x="533" y="241" type="curve" smooth="yes"/>
      <point x="533" y="303"/>
      <point x="510" y="360"/>
      <point x="471" y="402" type="curve"/>
      <point x="510" y="445"/>
      <point x="533" y="502"/>
      <point x="533" y="564" type="curve" smooth="yes"/>
      <point x="533" y="697"/>
      <point x="425" y="805"/>
      <point x="292" y="805" type="curve" smooth="yes"/>
      <point x="158" y="805"/>
      <point x="50" y="697"/>
      <point x="50" y="564" type="curve"/>
      <point x="201" y="564" type="line"/>
      <point x="201" y="613"/>
      <point x="238" y="664"/>
      <point x="292" y="664" type="curve" smooth="yes"/>
      <point x="350" y="664"/>
      <point x="392" y="622"/>
      <point x="392" y="564" type="curve" smooth="yes"/>
      <point x="392" y="512"/>
      <point x="344" y="474"/>
      <point x="299" y="473" type="curve"/>
      <point x="238" y="473" type="line"/>
    </contour>
  </outline>
</glyph>
<glyph name="four" format="1">
  <advance width="617"/>
  <unicode hex="0034"/>
  <outline>
    <contour>
      <point x="107" y="240" type="line"/>
      <point x="50" y="240" type="line"/>
      <point x="50" y="378" type="line"/>
      <point x="337" y="800" type="line"/>
      <point x="477" y="800" type="line"/>
    </contour>
    <contour>
      <point x="477" y="0" type="line"/>
      <point x="337" y="0" type="line"/>
      <point x="337" y="800" type="line"/>
      <point x="477" y="800" type="line"/>
    </contour>
    <contour>
      <point x="77" y="240" type="line"/>
      <point x="77" y="370" type="line"/>
      <point x="567" y="370" type="line"/>
      <point x="567" y="240" type="line"/>
    </contour>
  </outline>
</glyph>
<glyph name="five" format="1">
  <advance width="580"/>
  <unicode hex="0035"/>
  <outline>
    <contour>
      <point x="290" y="340" type="line"/>
      <point x="343" y="340"/>
      <point x="390" y="293"/>
      <point x="390" y="240" type="curve" smooth="yes"/>
      <point x="390" y="187"/>
      <point x="345" y="140"/>
      <point x="290" y="140" type="curve" smooth="yes"/>
      <point x="234" y="140"/>
      <point x="190" y="184"/>
      <point x="190" y="240" type="curve"/>
      <point x="50" y="240" type="line"/>
      <point x="50" y="107"/>
      <point x="157" y="0"/>
      <point x="290" y="0" type="curve" smooth="yes"/>
      <point x="423" y="0"/>
      <point x="530" y="107"/>
      <point x="530" y="240" type="curve" smooth="yes"/>
      <point x="530" y="373"/>
      <point x="423" y="480"/>
      <point x="290" y="480" type="curve" smooth="yes"/>
      <point x="190" y="480" type="line"/>
      <point x="190" y="660" type="line"/>
      <point x="500" y="660" type="line"/>
      <point x="500" y="800" type="line"/>
      <point x="50" y="800" type="line"/>
      <point x="50" y="340" type="line"/>
    </contour>
  </outline>
</glyph>
<glyph name="six" format="1">
  <advance width="583"/>
  <unicode hex="0036"/>
  <outline>
    <contour>
      <point x="50" y="241" type="line"/>
      <point x="50" y="108"/>
      <point x="158" y="0"/>
      <point x="292" y="0" type="curve" smooth="yes"/>
      <point x="425" y="0"/>
      <point x="533" y="108"/>
      <point x="533" y="241" type="curve" smooth="yes"/>
      <point x="533" y="375"/>
      <point x="425" y="483"/>
      <point x="292" y="483" type="curve" smooth="yes"/>
      <point x="253" y="483"/>
      <point x="216" y="471"/>
      <point x="191" y="463" type="curve"/>
      <point x="191" y="563" type="line" smooth="yes"/>
      <point x="191" y="618"/>
      <point x="238" y="664"/>
      <point x="292" y="664" type="curve" smooth="yes"/>
      <point x="345" y="664"/>
      <point x="392" y="617"/>
      <point x="392" y="563" type="curve"/>
      <point x="533" y="563" type="line"/>
      <point x="533" y="697"/>
      <point x="425" y="805"/>
      <point x="292" y="805" type="curve" smooth="yes"/>
      <point x="158" y="805"/>
      <point x="50" y="697"/>
      <point x="50" y="563" type="curve" smooth="yes"/>
    </contour>
    <contour>
      <point x="392" y="241" type="curve" smooth="yes"/>
      <point x="392" y="188"/>
      <point x="346" y="141"/>
      <point x="292" y="141" type="curve" smooth="yes"/>
      <point x="235" y="141"/>
      <point x="191" y="185"/>
      <point x="191" y="241" type="curve" smooth="yes"/>
      <point x="191" y="299"/>
      <point x="240" y="342"/>
      <point x="292" y="342" type="curve" smooth="yes"/>
      <point x="345" y="342"/>
      <point x="392" y="295"/>
    </contour>
  </outline>
</glyph>
<glyph name="seven" format="1">
  <advance width="570"/>
  <unicode hex="0037"/>
  <outline>
    <contour>
      <point x="520" y="660" type="line"/>
      <point x="50" y="660" type="line"/>
      <point x="50" y="800" type="line"/>
      <point x="520" y="800" type="line"/>
    </contour>
    <contour>
      <point x="520" y="660" type="line"/>
      <point x="210" y="0" type="line"/>
      <point x="50" y="0" type="line"/>
      <point x="360" y="660" type="line"/>
    </contour>
  </outline>
</glyph>
<glyph name="eight" format="1">
  <advance width="583"/>
  <unicode hex="0038"/>
  <outline>
    <contour>
      <point x="50" y="241" type="curve" smooth="yes"/>
      <point x="50" y="108"/>
      <point x="158" y="0"/>
      <point x="292" y="0" type="curve" smooth="yes"/>
      <point x="425" y="0"/>
      <point x="533" y="108"/>
      <point x="533" y="241" type="curve" smooth="yes"/>
      <point x="533" y="303"/>
      <point x="510" y="360"/>
      <point x="471" y="402" type="curve"/>
      <point x="510" y="445"/>
      <point x="533" y="501"/>
      <point x="533" y="564" type="curve" smooth="yes"/>
      <point x="533" y="696"/>
      <point x="425" y="805"/>
      <point x="292" y="805" type="curve" smooth="yes"/>
      <point x="158" y="805"/>
      <point x="50" y="696"/>
      <point x="50" y="564" type="curve" smooth="yes"/>
      <point x="50" y="501"/>
      <point x="73" y="445"/>
      <point x="111" y="402" type="curve"/>
      <point x="73" y="360"/>
      <point x="50" y="303"/>
    </contour>
    <contour>
      <point x="392" y="241" type="curve" smooth="yes"/>
      <point x="392" y="188"/>
      <point x="346" y="141"/>
      <point x="292" y="141" type="curve" smooth="yes"/>
      <point x="236" y="141"/>
      <point x="191" y="186"/>
      <point x="191" y="241" type="curve" smooth="yes"/>
      <point x="191" y="297"/>
      <point x="238" y="342"/>
      <point x="292" y="342" type="curve" smooth="yes"/>
      <point x="347" y="342"/>
      <point x="392" y="294"/>
    </contour>
    <contour>
      <point x="392" y="564" type="curve" smooth="yes"/>
      <point x="392" y="510"/>
      <point x="346" y="463"/>
      <point x="292" y="463" type="curve" smooth="yes"/>
      <point x="236" y="463"/>
      <point x="191" y="508"/>
      <point x="191" y="564" type="curve" smooth="yes"/>
      <point x="191" y="618"/>
      <point x="238" y="663"/>
      <point x="292" y="663" type="curve" smooth="yes"/>
      <point x="345" y="663"/>
      <point x="392" y="616"/>
    </contour>
  </outline>
</glyph>
<glyph name="nine" format="1">
  <advance width="583"/>
  <unicode hex="0039"/>
  <outline>
    <contour>
      <point x="533" y="564" type="line"/>
      <point x="533" y="697"/>
      <point x="425" y="805"/>
      <point x="291" y="805" type="curve" smooth="yes"/>
      <point x="158" y="805"/>
      <point x="50" y="697"/>
      <point x="50" y="564" type="curve" smooth="yes"/>
      <point x="50" y="430"/>
      <point x="158" y="322"/>
      <point x="291" y="322" type="curve" smooth="yes"/>
      <point x="330" y="322"/>
      <point x="367" y="334"/>
      <point x="392" y="342" type="curve"/>
      <point x="392" y="242" type="line" smooth="yes"/>
      <point x="392" y="187"/>
      <point x="345" y="141"/>
      <point x="291" y="141" type="curve" smooth="yes"/>
      <point x="238" y="141"/>
      <point x="191" y="188"/>
      <point x="191" y="242" type="curve"/>
      <point x="50" y="242" type="line"/>
      <point x="50" y="108"/>
      <point x="158" y="0"/>
      <point x="291" y="0" type="curve" smooth="yes"/>
      <point x="425" y="0"/>
      <point x="533" y="108"/>
      <point x="533" y="242" type="curve" smooth="yes"/>
    </contour>
    <contour>
      <point x="191" y="564" type="curve" smooth="yes"/>
      <point x="191" y="617"/>
      <point x="237" y="664"/>
      <point x="291" y="664" type="curve" smooth="yes"/>
      <point x="348" y="664"/>
      <point x="392" y="620"/>
      <point x="392" y="564" type="curve" smooth="yes"/>
      <point x="392" y="506"/>
      <point x="343" y="463"/>
      <point x="291" y="463" type="curve" smooth="yes"/>
      <point x="238" y="463"/>
      <point x="191" y="510"/>
    </contour>
  </outline>
</glyph>
<glyph name="colon" format="1">
  <advance width="280"/>
  <unicode hex="003A"/>
  <outline>
    <contour>
      <point x="40" y="370" type="curve" smooth="yes"/>
      <point x="40" y="315"/>
      <point x="85" y="270"/>
      <point x="140" y="270" type="curve" smooth="yes"/>
      <point x="196" y="270"/>
      <point x="240" y="315"/>
      <point x="240" y="370" type="curve" smooth="yes"/>
      <point x="240" y="425"/>
      <point x="196" y="470"/>
      <point x="140" y="470" type="curve" smooth="yes"/>
      <point x="85" y="470"/>
      <point x="40" y="425"/>
    </contour>
    <contour>
      <point x="40" y="100" type="curve" smooth="yes"/>
      <point x="40" y="45"/>
      <point x="85" y="0"/>
      <point x="140" y="0" type="curve" smooth="yes"/>
      <point x="196" y="0"/>
      <point x="240" y="45"/>
      <point x="240" y="100" type="curve" smooth="yes"/>
      <point x="240" y="155"/>
      <point x="196" y="200"/>
      <point x="140" y="200" type="curve" smooth="yes"/>
      <point x="85" y="200"/>
      <point x="40" y="155"/>
    </contour>
  </outline>
</glyph>
<glyph name="semicolon" format="1">
  <advance width="298"/>
  <unicode hex="003B"/>
  <outline>
    <contour>
      <point x="72" y="370" type="curve" smooth="yes"/>
      <point x="72" y="315"/>
      <point x="117" y="270"/>
      <point x="172" y="270" type="curve" smooth="yes"/>
      <point x="228" y="270"/>
      <point x="272" y="315"/>
      <point x="272" y="370" type="curve" smooth="yes"/>
      <point x="272" y="425"/>
      <point x="228" y="470"/>
      <point x="172" y="470" type="curve" smooth="yes"/>
      <point x="117" y="470"/>
      <point x="72" y="425"/>
    </contour>
    <contour>
      <point x="20" y="-79" type="line"/>
      <point x="158" y="-79" type="line"/>
      <point x="258" y="200" type="line"/>
      <point x="100" y="200" type="line"/>
    </contour>
  </outline>
</glyph>
<glyph name="equal" format="1">
  <advance width="520"/>
  <unicode hex="003D"/>
  <outline>
    <contour>
      <point x="470" y="360" type="line"/>
      <point x="470" y="500" type="line"/>
      <point x="50" y="500" type="line"/>
      <point x="50" y="360" type="line"/>
    </contour>
    <contour>
      <point x="470" y="140" type="line"/>
      <point x="470" y="280" type="line"/>
      <point x="50" y="280" type="line"/>
      <point x="50" y="140" type="line"/>
    </contour>
  </outline>
</glyph>
<glyph name="question" format="1">
  <advance width="520"/>
  <unicode hex="003F"/>
  <outline>
    <contour>
      <point x="100" y="100" type="curve" smooth="yes"/>
      <point x="100" y="45"/>
      <point x="145" y="0"/>
      <point x="200" y="0" type="curve" smooth="yes"/>
      <point x="255" y="0"/>
      <point x="300" y="45"/>
      <point x="300" y="100" type="curve" smooth="yes"/>
      <point x="300" y="155"/>
      <point x="255" y="200"/>
      <point x="200" y="200" type="curve" smooth="yes"/>
      <point x="145" y="200"/>
      <point x="100" y="155"/>
    </contour>
    <contour>
      <point x="366" y="549" type="curve" smooth="yes"/>
      <point x="366" y="492"/>
      <point x="317" y="444"/>
      <point x="261" y="444" type="curve" smooth="yes"/>
      <point x="135" y="444" type="line"/>
      <point x="135" y="230" type="line"/>
      <point x="261" y="230" type="line"/>
      <point x="261" y="293" type="line"/>
      <point x="402" y="293"/>
      <point x="517" y="408"/>
      <point x="517" y="549" type="curve" smooth="yes"/>
      <point x="517" y="690"/>
      <point x="402" y="805"/>
      <point x="261" y="805" type="curve" smooth="yes"/>
      <point x="120" y="805"/>
      <point x="5" y="690"/>
      <point x="5" y="549" type="curve"/>
      <point x="156" y="549" type="line"/>
      <point x="156" y="607"/>
      <point x="205" y="654"/>
      <point x="261" y="654" type="curve" smooth="yes"/>
      <point x="316" y="654"/>
      <point x="366" y="607"/>
    </contour>
  </outline>
</glyph>
<glyph name="at" format="1">
  <advance width="681"/>
  <unicode hex="0040"/>
  <outline>
    <contour>
      <point x="631" y="481" type="line"/>
      <point x="631" y="116" type="line"/>
      <point x="491" y="116" type="line"/>
      <point x="491" y="481" type="line"/>
    </contour>
    <contour>
      <point x="491" y="476" type="line"/>
      <point x="491" y="539"/>
      <point x="425" y="586"/>
      <point x="341" y="586" type="curve" smooth="yes"/>
      <point x="262" y="586"/>
      <point x="191" y="539"/>
      <point x="191" y="476" type="curve"/>
      <point x="51" y="476" type="line"/>
      <point x="51" y="616"/>
      <point x="185" y="726"/>
      <point x="341" y="726" type="curve" smooth="yes"/>
      <point x="511" y="726"/>
      <point x="631" y="616"/>
      <point x="631" y="476" type="curve"/>
    </contour>
    <contour>
      <point x="485" y="352" type="line"/>
      <point x="443" y="352"/>
      <point x="364" y="353"/>
      <point x="364" y="294" type="curve" smooth="yes"/>
      <point x="364" y="259"/>
      <point x="386" y="239"/>
      <point x="421" y="239" type="curve" smooth="yes"/>
      <point x="456" y="239"/>
      <point x="491" y="262"/>
      <point x="491" y="321" type="curve"/>
      <point x="551" y="321" type="line"/>
      <point x="554" y="189"/>
      <point x="470" y="111"/>
      <point x="391" y="111" type="curve" smooth="yes"/>
      <point x="292" y="111"/>
      <point x="221" y="175"/>
      <point x="221" y="284" type="curve" smooth="yes"/>
      <point x="221" y="406"/>
      <point x="304" y="469"/>
      <point x="446" y="469" type="curve" smooth="yes"/>
      <point x="621" y="469" type="line"/>
      <point x="621" y="352" type="line"/>
    </contour>
    <contour>
      <point x="190" y="481" type="line"/>
      <point x="190" y="146" type="line"/>
      <point x="50" y="146" type="line"/>
      <point x="50" y="481" type="line"/>
    </contour>
    <contour>
      <point x="612" y="20" type="line"/>
      <point x="580" y="-55"/>
      <point x="470" y="-134"/>
      <point x="341" y="-134" type="curve" smooth="yes"/>
      <point x="156" y="-134"/>
      <point x="51" y="-12"/>
      <point x="51" y="146" type="curve"/>
      <point x="191" y="146" type="line"/>
      <point x="191" y="65"/>
      <point x="262" y="6"/>
      <point x="341" y="6" type="curve" smooth="yes"/>
      <point x="405" y="6"/>
      <point x="465" y="31"/>
      <point x="491" y="76" type="curve"/>
    </contour>
  </outline>
</glyph>
<glyph name="A" format="1">
  <advance width="699"/>
  <unicode hex="0041"/>
  <outline>
    <contour>
      <point x="299" y="832" type="line"/>
      <point x="540" y="0" type="line"/>
      <point x="691" y="0" type="line"/>
      <point x="450" y="832" type="line"/>
    </contour>
    <contour>
      <point x="252" y="832" type="line"/>
      <point x="9" y="0" type="line"/>
      <point x="160" y="0" type="line"/>
      <point x="403" y="832" type="line"/>
    </contour>
    <contour>
      <point x="188" y="203" type="line"/>
      <point x="511" y="203" type="line"/>
      <point x="511" y="343" type="line"/>
      <point x="188" y="343" type="line"/>
    </contour>
  </outline>
</glyph>
<glyph name="B" format="1">
  <advance width="673"/>
  <unicode hex="0042"/>
  <outline>
    <contour>
      <point x="75" y="0" type="line"/>
      <point x="75" y="146" type="line"/>
      <point x="366" y="146" type="line" smooth="yes"/>
      <point x="422" y="146"/>
      <point x="471" y="193"/>
      <point x="471" y="249" type="curve"/>
      <point x="617" y="249" type="line"/>
      <point x="617" y="112"/>
      <point x="505" y="0"/>
      <point x="366" y="0" type="curve" smooth="yes"/>
    </contour>
    <contour>
      <point x="75" y="354" type="line"/>
      <point x="75" y="478" type="line"/>
      <point x="366" y="478" type="line" smooth="yes"/>
      <point x="422" y="478"/>
      <point x="471" y="525"/>
      <point x="471" y="581" type="curve"/>
      <point x="617" y="581" type="line"/>
      <point x="617" y="446"/>
      <point x="505" y="354"/>
      <point x="366" y="354" type="curve" smooth="yes"/>
    </contour>
    <contour>
      <point x="471" y="581" type="line"/>
      <point x="471" y="639"/>
      <point x="423" y="686"/>
      <point x="366" y="686" type="curve" smooth="yes"/>
      <point x="75" y="686" type="line"/>
      <point x="75" y="832" type="line"/>
      <point x="366" y="832" type="line" smooth="yes"/>
      <point x="505" y="832"/>
      <point x="617" y="720"/>
      <point x="617" y="581" type="curve"/>
    </contour>
    <contour>
      <point x="471" y="249" type="line"/>
      <point x="471" y="306"/>
      <point x="423" y="354"/>
      <point x="366" y="354" type="curve" smooth="yes"/>
      <point x="75" y="354" type="line"/>
      <point x="75" y="478" type="line"/>
      <point x="366" y="478" type="line" smooth="yes"/>
      <point x="505" y="478"/>
      <point x="617" y="387"/>
      <point x="617" y="249" type="curve"/>
    </contour>
    <contour>
      <point x="65" y="0" type="line"/>
      <point x="65" y="832" type="line"/>
      <point x="211" y="832" type="line"/>
      <point x="211" y="0" type="line"/>
    </contour>
  </outline>
</glyph>
<glyph name="C" format="1">
  <advance width="647"/>
  <unicode hex="0043"/>
  <outline>
    <contour>
      <point x="471" y="569" type="line"/>
      <point x="470" y="637"/>
      <point x="404" y="697"/>
      <point x="327" y="697" type="curve"/>
      <point x="252" y="696"/>
      <point x="186" y="630"/>
      <point x="186" y="556" type="curve"/>
      <point x="40" y="556" type="line"/>
      <point x="40" y="716"/>
      <point x="171" y="843"/>
      <point x="327" y="843" type="curve"/>
      <point x="489" y="843"/>
      <point x="617" y="721"/>
      <point x="617" y="569" type="curve"/>
    </contour>
    <contour>
      <point x="40" y="264" type="line"/>
      <point x="40" y="556" type="line"/>
      <point x="186" y="556" type="line"/>
      <point x="186" y="264" type="line"/>
    </contour>
    <contour>
      <point x="40" y="264" type="curve"/>
      <point x="186" y="264" type="line"/>
      <point x="187" y="182"/>
      <point x="253" y="136"/>
      <point x="327" y="136" type="curve"/>
      <point x="405" y="137"/>
      <point x="471" y="194"/>
      <point x="471" y="259" type="curve"/>
      <point x="617" y="259" type="line"/>
      <point x="617" y="112"/>
      <point x="489" y="-10"/>
      <point x="327" y="-10" type="curve"/>
      <point x="171" y="-10"/>
      <point x="40" y="115"/>
    </contour>
    <contour>
      <point x="617" y="528" type="line"/>
      <point x="471" y="528" type="line"/>
      <point x="471" y="569" type="line"/>
      <point x="617" y="569" type="line"/>
    </contour>
    <contour>
      <point x="617" y="259" type="line"/>
      <point x="471" y="259" type="line"/>
      <point x="471" y="302" type="line"/>
      <point x="617" y="302" type="line"/>
    </contour>
  </outline>
</glyph>
<glyph name="D" format="1">
  <advance width="683"/>
  <unicode hex="0044"/>
  <outline>
    <contour>
      <point x="499" y="534" type="line"/>
      <point x="498" y="627"/>
      <point x="434" y="686"/>
      <point x="347" y="686" type="curve" smooth="yes"/>
      <point x="77" y="686" type="line"/>
      <point x="77" y="832" type="line"/>
      <point x="347" y="832" type="line" smooth="yes"/>
      <point x="520" y="832"/>
      <point x="644" y="708"/>
      <point x="644" y="534" type="curve"/>
    </contour>
    <contour>
      <point x="67" y="0" type="line"/>
      <point x="67" y="832" type="line"/>
      <point x="213" y="832" type="line"/>
      <point x="213" y="0" type="line"/>
    </contour>
    <contour>
      <point x="499" y="296" type="line"/>
      <point x="499" y="534" type="line"/>
      <point x="644" y="534" type="line"/>
      <point x="644" y="296" type="line"/>
    </contour>
    <contour>
      <point x="77" y="0" type="line"/>
      <point x="77" y="146" type="line"/>
      <point x="347" y="146" type="line"/>
      <point x="434" y="147"/>
      <point x="499" y="210"/>
      <point x="499" y="296" type="curve"/>
      <point x="644" y="296" type="line"/>
      <point x="644" y="129"/>
      <point x="520" y="0"/>
      <point x="347" y="0" type="curve" smooth="yes"/>
    </contour>
  </outline>
</glyph>
<glyph name="E" format="1">
  <advance width="593"/>
  <unicode hex="0045"/>
  <outline>
    <contour>
      <point x="541" y="686" type="line"/>
      <point x="78" y="686" type="line"/>
      <point x="78" y="832" type="line"/>
      <point x="541" y="832" type="line"/>
    </contour>
    <contour>
      <point x="213" y="0" type="line"/>
      <point x="67" y="0" type="line"/>
      <point x="67" y="832" type="line"/>
      <point x="213" y="832" type="line"/>
    </contour>
    <contour>
      <point x="541" y="0" type="line"/>
      <point x="78" y="0" type="line"/>
      <point x="78" y="146" type="line"/>
      <point x="541" y="146" type="line"/>
    </contour>
    <contour>
      <point x="78" y="489" type="line"/>
      <point x="541" y="489" type="line"/>
      <point x="541" y="344" type="line"/>
      <point x="78" y="344" type="line"/>
    </contour>
  </outline>
</glyph>
<glyph name="F" format="1">
  <advance width="557"/>
  <unicode hex="0046"/>
  <outline>
    <contour>
      <point x="520" y="686" type="line"/>
      <point x="78" y="686" type="line"/>
      <point x="78" y="832" type="line"/>
      <point x="520" y="832" type="line"/>
    </contour>
    <contour>
      <point x="213" y="0" type="line"/>
      <point x="67" y="0" type="line"/>
      <point x="67" y="832" type="line"/>
      <point x="213" y="832" type="line"/>
    </contour>
    <contour>
      <point x="78" y="489" type="line"/>
      <point x="520" y="489" type="line"/>
      <point x="520" y="344" type="line"/>
      <point x="78" y="344" type="line"/>
    </contour>
  </outline>
</glyph>
<glyph name="G" format="1">
  <advance width="658"/>
  <unicode hex="0047"/>
  <outline>
    <contour>
      <point x="481" y="559" type="line"/>
      <point x="480" y="632"/>
      <point x="409" y="697"/>
      <point x="327" y="697" type="curve" smooth="yes"/>
      <point x="247" y="696"/>
      <point x="174" y="625"/>
      <point x="174" y="545" type="curve"/>
      <point x="30" y="545" type="line"/>
      <point x="30" y="712"/>
      <point x="166" y="843"/>
      <point x="327" y="843" type="curve" smooth="yes"/>
      <point x="496" y="843"/>
      <point x="627" y="717"/>
      <point x="627" y="559" type="curve"/>
    </contour>
    <contour>
      <point x="30" y="274" type="curve"/>
      <point x="30" y="545" type="line"/>
      <point x="174" y="545" type="line"/>
      <point x="174" y="274" type="line"/>
      <point x="174" y="274" type="line"/>
      <point x="175" y="187"/>
      <point x="248" y="136"/>
      <point x="327" y="136" type="curve" smooth="yes"/>
      <point x="410" y="137"/>
      <point x="481" y="199"/>
      <point x="481" y="269" type="curve"/>
      <point x="627" y="269" type="line"/>
      <point x="627" y="117"/>
      <point x="496" y="-10"/>
      <point x="327" y="-10" type="curve" smooth="yes"/>
      <point x="166" y="-10"/>
      <point x="30" y="120"/>
    </contour>
    <contour>
      <point x="627" y="269" type="line"/>
      <point x="481" y="269" type="line"/>
      <point x="481" y="325" type="line"/>
      <point x="627" y="325" type="line"/>
    </contour>
    <contour>
      <point x="627" y="323" type="line"/>
      <point x="350" y="323" type="line"/>
      <point x="350" y="455" type="line"/>
      <point x="627" y="455" type="line"/>
    </contour>
  </outline>
</glyph>
<glyph name="H" format="1">
  <advance width="727"/>
  <unicode hex="0048"/>
  <outline>
    <contour>
      <point x="213" y="0" type="line"/>
      <point x="67" y="0" type="line"/>
      <point x="67" y="832" type="line"/>
      <point x="213" y="832" type="line"/>
    </contour>
    <contour>
      <point x="650" y="344" type="line"/>
      <point x="77" y="344" type="line"/>
      <point x="77" y="489" type="line"/>
      <point x="650" y="489" type="line"/>
    </contour>
    <contour>
      <point x="660" y="0" type="line"/>
      <point x="515" y="0" type="line"/>
      <point x="515" y="832" type="line"/>
      <point x="660" y="832" type="line"/>
    </contour>
  </outline>
</glyph>
<glyph name="I" format="1">
  <advance width="290"/>
  <unicode hex="0049"/>
  <outline>
    <contour>
      <point x="217" y="0" type="line"/>
      <point x="71" y="0" type="line"/>
      <point x="71" y="832" type="line"/>
      <point x="217" y="832" type="line"/>
    </contour>
  </outline>
</glyph>
<glyph name="J" format="1">
  <advance width="584"/>
  <unicode hex="004A"/>
  <outline>
    <contour>
      <point x="533" y="244" type="curve"/>
      <point x="533" y="832" type="line"/>
      <point x="388" y="832" type="line"/>
      <point x="388" y="244" type="line"/>
      <point x="388" y="244" type="line"/>
      <point x="387" y="176"/>
      <point x="341" y="141"/>
      <point x="285" y="141" type="curve" smooth="yes"/>
      <point x="227" y="142"/>
      <point x="180" y="189"/>
      <point x="180" y="244" type="curve"/>
      <point x="35" y="244" type="line"/>
      <point x="35" y="107"/>
      <point x="147" y="-5"/>
      <point x="285" y="-5" type="curve" smooth="yes"/>
      <point x="421" y="-5"/>
      <point x="533" y="107"/>
    </contour>
    <contour>
      <point x="35" y="244" type="line"/>
      <point x="180" y="244" type="line"/>
      <point x="180" y="327" type="line"/>
      <point x="35" y="327" type="line"/>
    </contour>
  </outline>
</glyph>
<glyph name="K" format="1">
  <advance width="660"/>
  <unicode hex="004B"/>
  <outline>
    <contour>
      <point x="213" y="0" type="line"/>
      <point x="67" y="0" type="line"/>
      <point x="67" y="832" type="line"/>
      <point x="213" y="832" type="line"/>
    </contour>
    <contour>
      <point x="182" y="416" type="line"/>
      <point x="462" y="832" type="line"/>
      <point x="642" y="832" type="line"/>
      <point x="362" y="416" type="line"/>
    </contour>
    <contour>
      <point x="362" y="416" type="line"/>
      <point x="639" y="0" type="line"/>
      <point x="459" y="0" type="line"/>
      <point x="182" y="416" type="line"/>
    </contour>
  </outline>
</glyph>
<glyph name="L" format="1">
  <advance width="556"/>
  <unicode hex="004C"/>
  <outline>
    <contour>
      <point x="213" y="0" type="line"/>
      <point x="67" y="0" type="line"/>
      <point x="67" y="832" type="line"/>
      <point x="213" y="832" type="line"/>
    </contour>
    <contour>
      <point x="541" y="0" type="line"/>
      <point x="78" y="0" type="line"/>
      <point x="78" y="146" type="line"/>
      <point x="541" y="146" type="line"/>
    </contour>
  </outline>
</glyph>
<glyph name="M" format="1">
  <advance width="892"/>
  <unicode hex="004D"/>
  <outline>
    <contour>
      <point x="197" y="0" type="line"/>
      <point x="51" y="0" type="line"/>
      <point x="51" y="832" type="line"/>
      <point x="197" y="832" type="line"/>
    </contour>
    <contour>
      <point x="841" y="0" type="line"/>
      <point x="696" y="0" type="line"/>
      <point x="696" y="832" type="line"/>
      <point x="841" y="832" type="line"/>
    </contour>
    <contour>
      <point x="260" y="832" type="line"/>
      <point x="487" y="171" type="line"/>
      <point x="487" y="1" type="line"/>
      <point x="394" y="1" type="line"/>
      <point x="109" y="832" type="line"/>
    </contour>
    <contour>
      <point x="645" y="832" type="line"/>
      <point x="785" y="832" type="line"/>
      <point x="503" y="1" type="line"/>
      <point x="411" y="1" type="line"/>
      <point x="411" y="169" type="line"/>
    </contour>
  </outline>
</glyph>
<glyph name="N" format="1">
  <advance width="751"/>
  <unicode hex="004E"/>
  <outline>
    <contour>
      <point x="211" y="0" type="line"/>
      <point x="67" y="0" type="line"/>
      <point x="67" y="832" type="line"/>
      <point x="211" y="832" type="line"/>
    </contour>
    <contour>
      <point x="684" y="0" type="line"/>
      <point x="538" y="0" type="line"/>
      <point x="538" y="832" type="line"/>
      <point x="684" y="832" type="line"/>
    </contour>
    <contour>
      <point x="212" y="832" type="line"/>
      <point x="600" y="196" type="line"/>
      <point x="600" y="0" type="line"/>
      <point x="537" y="0" type="line"/>
      <point x="141" y="653" type="line"/>
      <point x="141" y="832" type="line"/>
    </contour>
  </outline>
</glyph>
<glyph name="O" format="1">
  <advance width="655"/>
  <unicode hex="004F"/>
  <outline>
    <contour>
      <point x="481" y="549" type="line"/>
      <point x="480" y="627"/>
      <point x="427" y="697"/>
      <point x="327" y="697" type="curve"/>
      <point x="247" y="696"/>
      <point x="174" y="625"/>
      <point x="174" y="545" type="curve"/>
      <point x="30" y="545" type="line"/>
      <point x="30" y="712"/>
      <point x="166" y="843"/>
      <point x="327" y="843" type="curve" smooth="yes"/>
      <point x="496" y="843"/>
      <point x="627" y="737"/>
      <point x="627" y="549" type="curve"/>
    </contour>
    <contour>
      <point x="30" y="274" type="curve"/>
      <point x="30" y="545" type="line"/>
      <point x="174" y="545" type="line"/>
      <point x="174" y="274" type="line"/>
      <point x="174" y="274" type="line"/>
      <point x="175" y="187"/>
      <point x="248" y="136"/>
      <point x="327" y="136" type="curve" smooth="yes"/>
      <point x="410" y="137"/>
      <point x="481" y="199"/>
      <point x="481" y="269" type="curve"/>
      <point x="627" y="269" type="line"/>
      <point x="627" y="117"/>
      <point x="496" y="-10"/>
      <point x="327" y="-10" type="curve" smooth="yes"/>
      <point x="166" y="-10"/>
      <point x="30" y="120"/>
    </contour>
    <contour>
      <point x="627" y="269" type="line"/>
      <point x="481" y="269" type="line"/>
      <point x="481" y="550" type="line"/>
      <point x="627" y="550" type="line"/>
    </contour>
  </outline>
</glyph>
<glyph name="P" format="1">
  <advance width="669"/>
  <unicode hex="0050"/>
  <outline>
    <contour>
      <point x="493" y="571" type="line"/>
      <point x="492" y="635"/>
      <point x="440" y="686"/>
      <point x="377" y="686" type="curve" smooth="yes"/>
      <point x="67" y="686" type="line"/>
      <point x="67" y="832" type="line"/>
      <point x="377" y="832" type="line" smooth="yes"/>
      <point x="521" y="832"/>
      <point x="638" y="716"/>
      <point x="638" y="571" type="curve"/>
    </contour>
    <contour>
      <point x="67" y="0" type="line"/>
      <point x="67" y="686" type="line"/>
      <point x="213" y="686" type="line"/>
      <point x="213" y="0" type="line"/>
    </contour>
    <contour>
      <point x="493" y="540" type="line"/>
      <point x="493" y="571" type="line"/>
      <point x="638" y="571" type="line"/>
      <point x="638" y="540" type="line"/>
    </contour>
    <contour>
      <point x="67" y="280" type="line"/>
      <point x="67" y="426" type="line"/>
      <point x="377" y="426" type="line"/>
      <point x="440" y="427"/>
      <point x="493" y="479"/>
      <point x="493" y="540" type="curve"/>
      <point x="638" y="540" type="line"/>
      <point x="638" y="397"/>
      <point x="521" y="280"/>
      <point x="377" y="280" type="curve" smooth="yes"/>
    </contour>
  </outline>
</glyph>
<glyph name="Q" format="1">
  <advance width="657"/>
  <unicode hex="0051"/>
  <outline>
    <contour>
      <point x="415" y="-98" type="line"/>
      <point x="414" y="-44"/>
      <point x="379" y="-10"/>
      <point x="327" y="-10" type="curve"/>
      <point x="327" y="133" type="line"/>
      <point x="455" y="133"/>
      <point x="558" y="30"/>
      <point x="558" y="-98" type="curve"/>
    </contour>
    <contour>
      <point x="481" y="549" type="line"/>
      <point x="480" y="627"/>
      <point x="427" y="697"/>
      <point x="327" y="697" type="curve"/>
      <point x="247" y="696"/>
      <point x="174" y="625"/>
      <point x="174" y="545" type="curve"/>
      <point x="30" y="545" type="line"/>
      <point x="30" y="712"/>
      <point x="166" y="843"/>
      <point x="327" y="843" type="curve" smooth="yes"/>
      <point x="496" y="843"/>
      <point x="627" y="737"/>
      <point x="627" y="549" type="curve"/>
    </contour>
    <contour>
      <point x="30" y="274" type="curve"/>
      <point x="30" y="545" type="line"/>
      <point x="174" y="545" type="line"/>
      <point x="174" y="274" type="line"/>
      <point x="174" y="274" type="line"/>
      <point x="175" y="187"/>
      <point x="248" y="136"/>
      <point x="327" y="136" type="curve" smooth="yes"/>
      <point x="410" y="137"/>
      <point x="481" y="199"/>
      <point x="481" y="269" type="curve"/>
      <point x="627" y="269" type="line"/>
      <point x="627" y="117"/>
      <point x="496" y="-10"/>
      <point x="327" y="-10" type="curve" smooth="yes"/>
      <point x="166" y="-10"/>
      <point x="30" y="120"/>
    </contour>
    <contour>
      <point x="627" y="269" type="line"/>
      <point x="481" y="269" type="line"/>
      <point x="481" y="550" type="line"/>
      <point x="627" y="550" type="line"/>
    </contour>
  </outline>
</glyph>
<glyph name="R" format="1">
  <advance width="695"/>
  <unicode hex="0052"/>
  <outline>
    <contour>
      <point x="483" y="581" type="line"/>
      <point x="482" y="640"/>
      <point x="436" y="686"/>
      <point x="378" y="686" type="curve" smooth="yes"/>
      <point x="78" y="686" type="line"/>
      <point x="78" y="832" type="line"/>
      <point x="378" y="832" type="line" smooth="yes"/>
      <point x="517" y="832"/>
      <point x="629" y="720"/>
      <point x="629" y="581" type="curve"/>
    </contour>
    <contour>
      <point x="67" y="0" type="line"/>
      <point x="67" y="832" type="line"/>
      <point x="213" y="832" type="line"/>
      <point x="213" y="0" type="line"/>
    </contour>
    <contour>
      <point x="483" y="551" type="line"/>
      <point x="483" y="581" type="line"/>
      <point x="629" y="581" type="line"/>
      <point x="629" y="551" type="line"/>
    </contour>
    <contour>
      <point x="78" y="302" type="line"/>
      <point x="78" y="448" type="line"/>
      <point x="378" y="448" type="line"/>
      <point x="436" y="449"/>
      <point x="483" y="496"/>
      <point x="483" y="551" type="curve"/>
      <point x="629" y="551" type="line"/>
      <point x="629" y="414"/>
      <point x="517" y="302"/>
      <point x="378" y="302" type="curve" smooth="yes"/>
    </contour>
    <contour>
      <point x="461" y="0" type="line"/>
      <point x="223" y="446" type="line"/>
      <point x="399" y="446" type="line"/>
      <point x="635" y="0" type="line"/>
    </contour>
  </outline>
</glyph>
<glyph name="S" format="1">
  <advance width="612"/>
  <unicode hex="0053"/>
  <outline>
    <contour>
      <point x="598" y="242" type="curve" smooth="yes"/>
      <point x="598" y="322"/>
      <point x="572" y="371"/>
      <point x="525" y="412" type="curve" smooth="yes"/>
      <point x="483" y="448"/>
      <point x="424" y="474"/>
      <point x="352" y="492" type="curve" smooth="yes"/>
      <point x="305" y="504"/>
      <point x="268" y="512"/>
      <point x="229" y="542" type="curve" smooth="yes"/>
      <point x="207" y="559"/>
      <point x="196" y="581"/>
      <point x="196" y="610" type="curve" smooth="yes"/>
      <point x="196" y="658"/>
      <point x="226" y="710"/>
      <point x="309" y="710" type="curve" smooth="yes"/>
      <point x="376" y="710"/>
      <point x="409" y="671"/>
      <point x="415" y="604" type="curve"/>
      <point x="575" y="604" type="line"/>
      <point x="571" y="735"/>
      <point x="476" y="844"/>
      <point x="309" y="844" type="curve" smooth="yes"/>
      <point x="160" y="844"/>
      <point x="33" y="750"/>
      <point x="33" y="597" type="curve" smooth="yes"/>
      <point x="33" y="520"/>
      <point x="60" y="462"/>
      <point x="104" y="423" type="curve" smooth="yes"/>
      <point x="154" y="379"/>
      <point x="216" y="355"/>
      <point x="285" y="336" type="curve"/>
      <point x="359" y="318"/>
      <point x="434" y="297"/>
      <point x="434" y="215" type="curve" smooth="yes"/>
      <point x="434" y="162"/>
      <point x="389" y="125"/>
      <point x="314" y="125" type="curve" smooth="yes"/>
      <point x="229" y="125"/>
      <point x="191" y="167"/>
      <point x="188" y="236" type="curve"/>
      <point x="24" y="236" type="line"/>
      <point x="28" y="80"/>
      <point x="135" y="-10"/>
      <point x="313" y="-10" type="curve" smooth="yes"/>
      <point x="499" y="-10"/>
      <point x="598" y="100"/>
    </contour>
  </outline>
</glyph>
<glyph name="T" format="1">
  <advance width="684"/>
  <unicode hex="0054"/>
  <outline>
    <contour>
      <point x="658" y="686" type="line"/>
      <point x="33" y="686" type="line"/>
      <point x="33" y="832" type="line"/>
      <point x="658" y="832" type="line"/>
    </contour>
    <contour>
      <point x="419" y="0" type="line"/>
      <point x="273" y="0" type="line"/>
      <point x="273" y="822" type="line"/>
      <point x="419" y="822" type="line"/>
    </contour>
  </outline>
</glyph>
<glyph name="interpolation.0" format="1">
  <advance width="600"/>
  <unicode hex="0054"/>
  <outline>
    <contour>
      <point x="600" y="686" type="line"/>
      <point x="0" y="686" type="line"/>
      <point x="0" y="832" type="line"/>
      <point x="600" y="832" type="line"/>
    </contour>
    <contour>
      <point x="374" y="0" type="line"/>
      <point x="228" y="0" type="line"/>
      <point x="228" y="822" type="line"/>
      <point x="374" y="822" type="line"/>
    </contour>
  </outline>
</glyph>
<glyph name="U" format="1">
  <advance width="711"/>
  <unicode hex="0055"/>
  <outline>
    <contour>
      <point x="67" y="264" type="curve"/>
      <point x="67" y="832" type="line"/>
      <point x="213" y="832" type="line"/>
      <point x="213" y="264" type="line"/>
      <point x="213" y="264" type="line"/>
      <point x="214" y="182"/>
      <point x="280" y="136"/>
      <point x="354" y="136" type="curve" smooth="yes"/>
      <point x="432" y="137"/>
      <point x="498" y="194"/>
      <point x="498" y="259" type="curve"/>
      <point x="644" y="259" type="line"/>
      <point x="644" y="112"/>
      <point x="516" y="-10"/>
      <point x="354" y="-10" type="curve" smooth="yes"/>
      <point x="198" y="-10"/>
      <point x="67" y="115"/>
    </contour>
    <contour>
      <point x="644" y="259" type="line"/>
      <point x="498" y="259" type="line"/>
      <point x="498" y="832" type="line"/>
      <point x="644" y="832" type="line"/>
    </contour>
  </outline>
</glyph>
<glyph name="V" format="1">
  <advance width="702"/>
  <unicode hex="0056"/>
  <outline>
    <contour>
      <point x="426" y="0" type="line"/>
      <point x="170" y="832" type="line"/>
      <point x="19" y="832" type="line"/>
      <point x="275" y="0" type="line"/>
    </contour>
    <contour>
      <point x="433" y="0" type="line"/>
      <point x="689" y="832" type="line"/>
      <point x="539" y="832" type="line"/>
      <point x="282" y="0" type="line"/>
    </contour>
  </outline>
</glyph>
<glyph name="W" format="1">
  <advance width="828"/>
  <unicode hex="0057"/>
  <outline>
    <contour>
      <point x="310" y="0" type="line"/>
      <point x="164" y="832" type="line"/>
      <point x="18" y="832" type="line"/>
      <point x="174" y="0" type="line"/>
    </contour>
    <contour>
      <point x="330" y="0" type="line"/>
      <point x="476" y="832" type="line"/>
      <point x="342" y="832" type="line"/>
      <point x="206" y="0" type="line"/>
    </contour>
    <contour>
      <point x="622" y="0" type="line"/>
      <point x="487" y="832" type="line"/>
      <point x="352" y="832" type="line"/>
      <point x="498" y="0" type="line"/>
    </contour>
    <contour>
      <point x="654" y="0" type="line"/>
      <point x="810" y="832" type="line"/>
      <point x="664" y="832" type="line"/>
      <point x="518" y="0" type="line"/>
    </contour>
  </outline>
</glyph>
<glyph name="X" format="1">
  <advance width="580"/>
  <unicode hex="0058"/>
  <outline>
    <contour>
      <point x="217" y="416" type="line"/>
      <point x="406" y="832" type="line"/>
      <point x="562" y="832" type="line"/>
      <point x="363" y="416" type="line"/>
    </contour>
    <contour>
      <point x="217" y="416" type="line"/>
      <point x="18" y="832" type="line"/>
      <point x="174" y="832" type="line"/>
      <point x="363" y="416" type="line"/>
    </contour>
    <contour>
      <point x="363" y="437" type="line"/>
      <point x="562" y="0" type="line"/>
      <point x="406" y="0" type="line"/>
      <point x="217" y="437" type="line"/>
    </contour>
    <contour>
      <point x="363" y="437" type="line"/>
      <point x="174" y="0" type="line"/>
      <point x="18" y="0" type="line"/>
      <point x="217" y="437" type="line"/>
    </contour>
  </outline>
</glyph>
<glyph name="Y" format="1">
  <advance width="562"/>
  <unicode hex="0059"/>
  <outline>
    <contour>
      <point x="353" y="0" type="line"/>
      <point x="207" y="0" type="line"/>
      <point x="207" y="410" type="line"/>
      <point x="353" y="410" type="line"/>
    </contour>
    <contour>
      <point x="207" y="333" type="line"/>
      <point x="396" y="832" type="line"/>
      <point x="552" y="832" type="line"/>
      <point x="353" y="333" type="line"/>
    </contour>
    <contour>
      <point x="207" y="333" type="line"/>
      <point x="10" y="832" type="line"/>
      <point x="166" y="832" type="line"/>
      <point x="353" y="333" type="line"/>
    </contour>
  </outline>
</glyph>
<glyph name="underscore" format="1">
  <advance width="520"/>
  <unicode hex="005F"/>
  <outline>
    <contour>
      <point x="470" y="0" type="line"/>
      <point x="470" y="140" type="line"/>
      <point x="50" y="140" type="line"/>
      <point x="50" y="0" type="line"/>
    </contour>
  </outline>
</glyph>
<glyph name="grave" format="1">
  <advance width="520"/>
  <unicode hex="0060"/>
  <outline>
    <contour>
      <point x="363" y="635" type="line"/>
      <point x="233" y="635" type="line"/>
      <point x="147" y="800" type="line"/>
      <point x="297" y="800" type="line"/>
    </contour>
  </outline>
</glyph>
<glyph name="a" format="1">
  <advance width="553"/>
  <unicode hex="0061"/>
  <outline>
    <contour>
      <point x="420" y="182" type="curve" smooth="yes"/>
      <point x="420" y="62"/>
      <point x="316" y="-10"/>
      <point x="227" y="-10" type="curve" smooth="yes"/>
      <point x="102" y="-10"/>
      <point x="31" y="70"/>
      <point x="31" y="182" type="curve" smooth="yes"/>
      <point x="31" y="308"/>
      <point x="131" y="373"/>
      <point x="230" y="373" type="curve" smooth="yes"/>
      <point x="340" y="373"/>
      <point x="420" y="304"/>
    </contour>
    <contour>
      <point x="360" y="374" type="line"/>
      <point x="359" y="406"/>
      <point x="361" y="436"/>
      <point x="344" y="458" type="curve" smooth="yes"/>
      <point x="324" y="484"/>
      <point x="298" y="492"/>
      <point x="264" y="492" type="curve" smooth="yes"/>
      <point x="218" y="492"/>
      <point x="183" y="468"/>
      <point x="176" y="424" type="curve"/>
      <point x="41" y="424" type="line"/>
      <point x="47" y="547"/>
      <point x="135" y="615"/>
      <point x="271" y="615" type="curve" smooth="yes"/>
      <point x="371" y="615"/>
      <point x="445" y="581"/>
      <point x="480" y="507" type="curve" smooth="yes"/>
      <point x="498" y="467"/>
      <point x="500" y="426"/>
      <point x="500" y="384" type="curve" smooth="yes"/>
      <point x="500" y="0" type="line"/>
      <point x="360" y="0" type="line"/>
    </contour>
    <contour>
      <point x="176" y="186" type="curve" smooth="yes"/>
      <point x="176" y="140"/>
      <point x="211" y="110"/>
      <point x="268" y="110" type="curve" smooth="yes"/>
      <point x="322" y="110"/>
      <point x="360" y="140"/>
      <point x="360" y="186" type="curve" smooth="yes"/>
      <point x="360" y="232"/>
      <point x="319" y="263"/>
      <point x="268" y="263" type="curve" smooth="yes"/>
      <point x="211" y="263"/>
      <point x="176" y="232"/>
    </contour>
  </outline>
</glyph>
<glyph name="c" format="1">
  <advance width="526"/>
  <unicode hex="0063"/>
  <outline>
    <contour>
      <point x="370" y="371" type="line"/>
      <point x="370" y="385" type="line" smooth="yes"/>
      <point x="370" y="406"/>
      <point x="368" y="430"/>
      <point x="360" y="446" type="curve" smooth="yes"/>
      <point x="345" y="478"/>
      <point x="314" y="492"/>
      <point x="280" y="492" type="curve"/>
      <point x="280" y="615" type="line"/>
      <point x="351" y="615"/>
      <point x="413" y="593"/>
      <point x="456" y="546" type="curve" smooth="yes"/>
      <point x="497" y="502"/>
      <point x="505" y="451"/>
      <point x="505" y="371" type="curve"/>
    </contour>
    <contour>
      <point x="190" y="385" type="curve"/>
      <point x="190" y="220" type="line" smooth="yes"/>
      <point x="190" y="199"/>
      <point x="192" y="175"/>
      <point x="200" y="159" type="curve" smooth="yes"/>
      <point x="215" y="127"/>
      <point x="246" y="113"/>
      <point x="280" y="113" type="curve"/>
      <point x="280" y="-10" type="line"/>
      <point x="209" y="-10"/>
      <point x="146" y="9"/>
      <point x="103" y="56" type="curve" smooth="yes"/>
      <point x="62" y="100"/>
      <point x="50" y="160"/>
      <point x="50" y="240" type="curve" smooth="yes"/>
      <point x="50" y="365" type="line" smooth="yes"/>
      <point x="50" y="445"/>
      <point x="63" y="501"/>
      <point x="104" y="545" type="curve" smooth="yes"/>
      <point x="147" y="592"/>
      <point x="209" y="615"/>
      <point x="280" y="615" type="curve"/>
      <point x="280" y="492" type="line"/>
      <point x="246" y="492"/>
      <point x="215" y="478"/>
      <point x="200" y="446" type="curve" smooth="yes"/>
      <point x="192" y="430"/>
      <point x="190" y="406"/>
    </contour>
    <contour>
      <point x="505" y="234" type="line"/>
      <point x="505" y="154"/>
      <point x="497" y="103"/>
      <point x="456" y="59" type="curve" smooth="yes"/>
      <point x="413" y="12"/>
      <point x="351" y="-10"/>
      <point x="280" y="-10" type="curve"/>
      <point x="280" y="113" type="line"/>
      <point x="314" y="113"/>
      <point x="345" y="127"/>
      <point x="360" y="159" type="curve" smooth="yes"/>
      <point x="368" y="175"/>
      <point x="370" y="199"/>
      <point x="370" y="220" type="curve" smooth="yes"/>
      <point x="370" y="234" type="line"/>
    </contour>
  </outline>
</glyph>
<glyph name="e" format="1">
  <advance width="555"/>
  <unicode hex="0065"/>
  <outline>
    <contour>
      <point x="70" y="371" type="line"/>
      <point x="510" y="371" type="line"/>
      <point x="510" y="264" type="line"/>
      <point x="70" y="264" type="line"/>
    </contour>
    <contour>
      <point x="370" y="365" type="line"/>
      <point x="370" y="385" type="line" smooth="yes"/>
      <point x="370" y="406"/>
      <point x="368" y="430"/>
      <point x="360" y="446" type="curve" smooth="yes"/>
      <point x="345" y="478"/>
      <point x="314" y="492"/>
      <point x="280" y="492" type="curve"/>
      <point x="280" y="615" type="line"/>
      <point x="351" y="615"/>
      <point x="413" y="591"/>
      <point x="456" y="544" type="curve" smooth="yes"/>
      <point x="497" y="500"/>
      <point x="510" y="445"/>
      <point x="510" y="365" type="curve"/>
    </contour>
    <contour>
      <point x="190" y="385" type="curve"/>
      <point x="190" y="220" type="line" smooth="yes"/>
      <point x="190" y="199"/>
      <point x="192" y="175"/>
      <point x="200" y="159" type="curve" smooth="yes"/>
      <point x="215" y="127"/>
      <point x="246" y="113"/>
      <point x="280" y="113" type="curve"/>
      <point x="280" y="-10" type="line"/>
      <point x="209" y="-10"/>
      <point x="146" y="11"/>
      <point x="103" y="58" type="curve" smooth="yes"/>
      <point x="62" y="102"/>
      <point x="50" y="160"/>
      <point x="50" y="240" type="curve" smooth="yes"/>
      <point x="50" y="365" type="line" smooth="yes"/>
      <point x="50" y="445"/>
      <point x="63" y="499"/>
      <point x="104" y="543" type="curve" smooth="yes"/>
      <point x="147" y="590"/>
      <point x="209" y="615"/>
      <point x="280" y="615" type="curve"/>
      <point x="280" y="492" type="line"/>
      <point x="246" y="492"/>
      <point x="215" y="478"/>
      <point x="200" y="446" type="curve" smooth="yes"/>
      <point x="192" y="430"/>
      <point x="190" y="406"/>
    </contour>
    <contour>
      <point x="508" y="191" type="line"/>
      <point x="503" y="136"/>
      <point x="489" y="93"/>
      <point x="457" y="59" type="curve" smooth="yes"/>
      <point x="414" y="12"/>
      <point x="351" y="-10"/>
      <point x="280" y="-10" type="curve"/>
      <point x="280" y="113" type="line"/>
      <point x="304" y="113"/>
      <point x="329" y="117"/>
      <point x="347" y="133" type="curve" smooth="yes"/>
      <point x="364" y="147"/>
      <point x="371" y="168"/>
      <point x="373" y="191" type="curve"/>
    </contour>
  </outline>
</glyph>
<glyph name="f" format="1">
  <advance width="360"/>
  <unicode hex="0066"/>
  <outline>
    <contour>
      <point x="15" y="605" type="line"/>
      <point x="365" y="605" type="line"/>
      <point x="365" y="492" type="line"/>
      <point x="15" y="492" type="line"/>
    </contour>
    <contour>
      <point x="225" y="600" type="curve"/>
      <point x="225" y="0" type="line"/>
      <point x="85" y="0" type="line"/>
      <point x="85" y="599" type="line" smooth="yes"/>
      <point x="85" y="647"/>
      <point x="89" y="696"/>
      <point x="113" y="738" type="curve" smooth="yes"/>
      <point x="136" y="778"/>
      <point x="169" y="806"/>
      <point x="223" y="821" type="curve" smooth="yes"/>
      <point x="249" y="828"/>
      <point x="285" y="830"/>
      <point x="315" y="830" type="curve" smooth="yes"/>
      <point x="365" y="830" type="line"/>
      <point x="365" y="707" type="line"/>
      <point x="332" y="707" type="line" smooth="yes"/>
      <point x="297" y="707"/>
      <point x="273" y="705"/>
      <point x="258" y="694" type="curve" smooth="yes"/>
      <point x="228" y="675"/>
      <point x="226" y="634"/>
    </contour>
  </outline>
</glyph>
<glyph name="g" format="1">
  <advance width="581"/>
  <unicode hex="0067"/>
  <outline>
    <contour>
      <point x="191" y="390" type="curve"/>
      <point x="191" y="215" type="line"/>
      <point x="192" y="203"/>
      <point x="193" y="178"/>
      <point x="200" y="163" type="curve" smooth="yes"/>
      <point x="214" y="132"/>
      <point x="244" y="113"/>
      <point x="281" y="113" type="curve" smooth="yes"/>
      <point x="345" y="113"/>
      <point x="381" y="151"/>
      <point x="381" y="200" type="curve"/>
      <point x="441" y="200" type="line"/>
      <point x="444" y="68"/>
      <point x="358" y="-10"/>
      <point x="251" y="-10" type="curve" smooth="yes"/>
      <point x="176" y="-10"/>
      <point x="106" y="19"/>
      <point x="72" y="83" type="curve" smooth="yes"/>
      <point x="56" y="114"/>
      <point x="50" y="158"/>
      <point x="51" y="200" type="curve"/>
      <point x="51" y="405" type="line"/>
      <point x="50" y="447"/>
      <point x="56" y="491"/>
      <point x="72" y="522" type="curve" smooth="yes"/>
      <point x="106" y="586"/>
      <point x="176" y="615"/>
      <point x="251" y="615" type="curve" smooth="yes"/>
      <point x="358" y="615"/>
      <point x="444" y="537"/>
      <point x="441" y="405" type="curve"/>
      <point x="381" y="405" type="line"/>
      <point x="381" y="454"/>
      <point x="345" y="492"/>
      <point x="281" y="492" type="curve" smooth="yes"/>
      <point x="244" y="492"/>
      <point x="214" y="473"/>
      <point x="200" y="442" type="curve" smooth="yes"/>
      <point x="193" y="427"/>
      <point x="192" y="402"/>
    </contour>
    <contour>
      <point x="381" y="605" type="line"/>
      <point x="521" y="605" type="line"/>
      <point x="521" y="1" type="line" smooth="yes"/>
      <point x="521" y="-56"/>
      <point x="514" y="-100"/>
      <point x="496" y="-140" type="curve" smooth="yes"/>
      <point x="461" y="-214"/>
      <point x="382" y="-250"/>
      <point x="282" y="-250" type="curve" smooth="yes"/>
      <point x="146" y="-250"/>
      <point x="68" y="-182"/>
      <point x="62" y="-59" type="curve"/>
      <point x="197" y="-59" type="line"/>
      <point x="204" y="-103"/>
      <point x="239" y="-127"/>
      <point x="285" y="-127" type="curve" smooth="yes"/>
      <point x="337" y="-127"/>
      <point x="363" y="-106"/>
      <point x="374" y="-70" type="curve" smooth="yes"/>
      <point x="381" y="-47"/>
      <point x="380" y="-15"/>
      <point x="381" y="11" type="curve"/>
    </contour>
  </outline>
</glyph>
<glyph name="h" format="1">
  <advance width="563"/>
  <unicode hex="0068"/>
  <outline>
    <contour>
      <point x="60" y="829" type="line"/>
      <point x="60" y="0" type="line"/>
      <point x="200" y="0" type="line"/>
      <point x="200" y="829" type="line"/>
    </contour>
    <contour>
      <point x="200" y="340" type="line"/>
      <point x="200" y="356"/>
      <point x="201" y="400"/>
      <point x="202" y="412" type="curve" smooth="yes"/>
      <point x="204" y="452"/>
      <point x="228" y="492"/>
      <point x="285" y="492" type="curve" smooth="yes"/>
      <point x="329" y="492"/>
      <point x="363" y="462"/>
      <point x="368" y="412" type="curve" smooth="yes"/>
      <point x="370" y="395"/>
      <point x="370" y="385"/>
      <point x="370" y="375" type="curve" smooth="yes"/>
      <point x="370" y="0" type="line"/>
      <point x="510" y="0" type="line"/>
      <point x="510" y="405" type="line"/>
      <point x="511" y="452"/>
      <point x="506" y="497"/>
      <point x="484" y="536" type="curve" smooth="yes"/>
      <point x="454" y="590"/>
      <point x="397" y="615"/>
      <point x="327" y="615" type="curve" smooth="yes"/>
      <point x="252" y="615"/>
      <point x="195" y="579"/>
      <point x="145" y="498" type="curve"/>
    </contour>
  </outline>
</glyph>
<glyph name="i" format="1">
  <advance width="260"/>
  <unicode hex="0069"/>
  <outline>
    <contour>
      <point x="60" y="605" type="line"/>
      <point x="60" y="0" type="line"/>
      <point x="200" y="0" type="line"/>
      <point x="200" y="605" type="line"/>
    </contour>
    <contour>
      <point x="41" y="755" type="curve" smooth="yes"/>
      <point x="41" y="706"/>
      <point x="81" y="666"/>
      <point x="130" y="666" type="curve" smooth="yes"/>
      <point x="179" y="666"/>
      <point x="220" y="706"/>
      <point x="220" y="755" type="curve" smooth="yes"/>
      <point x="220" y="804"/>
      <point x="179" y="845"/>
      <point x="130" y="845" type="curve" smooth="yes"/>
      <point x="81" y="845"/>
      <point x="41" y="804"/>
    </contour>
  </outline>
</glyph>
<glyph name="j" format="1">
  <advance width="273"/>
  <unicode hex="006A"/>
  <outline>
    <contour>
      <point x="51" y="755" type="curve" smooth="yes"/>
      <point x="51" y="706"/>
      <point x="91" y="666"/>
      <point x="140" y="666" type="curve" smooth="yes"/>
      <point x="189" y="666"/>
      <point x="230" y="706"/>
      <point x="230" y="755" type="curve" smooth="yes"/>
      <point x="230" y="804"/>
      <point x="189" y="845"/>
      <point x="140" y="845" type="curve" smooth="yes"/>
      <point x="91" y="845"/>
      <point x="51" y="804"/>
    </contour>
    <contour>
      <point x="70" y="-20" type="curve"/>
      <point x="70" y="604" type="line"/>
      <point x="210" y="604" type="line"/>
      <point x="210" y="-19" type="line" smooth="yes"/>
      <point x="210" y="-67"/>
      <point x="206" y="-116"/>
      <point x="182" y="-158" type="curve" smooth="yes"/>
      <point x="159" y="-198"/>
      <point x="126" y="-226"/>
      <point x="72" y="-241" type="curve" smooth="yes"/>
      <point x="46" y="-248"/>
      <point x="10" y="-250"/>
      <point x="-20" y="-250" type="curve" smooth="yes"/>
      <point x="-70" y="-250" type="line"/>
      <point x="-70" y="-127" type="line"/>
      <point x="-37" y="-127" type="line" smooth="yes"/>
      <point x="-2" y="-127"/>
      <point x="22" y="-125"/>
      <point x="37" y="-114" type="curve"/>
      <point x="67" y="-95"/>
      <point x="69" y="-54"/>
    </contour>
  </outline>
</glyph>
<glyph name="k" format="1">
  <advance width="520"/>
  <unicode hex="006B"/>
  <note>
    
  </note>
  <outline>
    <contour>
      <point x="200" y="830" type="line"/>
      <point x="200" y="0" type="line"/>
      <point x="60" y="0" type="line"/>
      <point x="60" y="830" type="line"/>
    </contour>
    <contour>
      <point x="319" y="341" type="line"/>
      <point x="553" y="0" type="line"/>
      <point x="393" y="0" type="line"/>
      <point x="159" y="341" type="line"/>
    </contour>
    <contour>
      <point x="551" y="605" type="line"/>
      <point x="314" y="311" type="line"/>
      <point x="154" y="311" type="line"/>
      <point x="391" y="605" type="line"/>
    </contour>
  </outline>
</glyph>
<glyph name="l" format="1">
  <advance width="260"/>
  <unicode hex="006C"/>
  <outline>
    <contour>
      <point x="60" y="829" type="line"/>
      <point x="60" y="0" type="line"/>
      <point x="200" y="0" type="line"/>
      <point x="200" y="829" type="line"/>
    </contour>
  </outline>
</glyph>
<glyph name="m" format="1">
  <advance width="833"/>
  <unicode hex="006D"/>
  <outline>
    <contour>
      <point x="60" y="605" type="line"/>
      <point x="60" y="0" type="line"/>
      <point x="200" y="0" type="line"/>
      <point x="200" y="605" type="line"/>
    </contour>
    <contour>
      <point x="200" y="340" type="line"/>
      <point x="200" y="356"/>
      <point x="201" y="400"/>
      <point x="202" y="412" type="curve" smooth="yes"/>
      <point x="204" y="452"/>
      <point x="230" y="492"/>
      <point x="280" y="492" type="curve" smooth="yes"/>
      <point x="324" y="492"/>
      <point x="353" y="462"/>
      <point x="358" y="412" type="curve" smooth="yes"/>
      <point x="360" y="395"/>
      <point x="360" y="385"/>
      <point x="360" y="375" type="curve" smooth="yes"/>
      <point x="360" y="0" type="line"/>
      <point x="500" y="0" type="line"/>
      <point x="500" y="405" type="line" smooth="yes"/>
      <point x="500" y="452"/>
      <point x="497" y="497"/>
      <point x="474" y="536" type="curve" smooth="yes"/>
      <point x="444" y="590"/>
      <point x="387" y="615"/>
      <point x="317" y="615" type="curve" smooth="yes"/>
      <point x="246" y="615"/>
      <point x="192" y="579"/>
      <point x="145" y="498" type="curve"/>
    </contour>
    <contour>
      <point x="500" y="340" type="line"/>
      <point x="500" y="356"/>
      <point x="501" y="400"/>
      <point x="502" y="412" type="curve" smooth="yes"/>
      <point x="504" y="452"/>
      <point x="530" y="492"/>
      <point x="580" y="492" type="curve" smooth="yes"/>
      <point x="624" y="492"/>
      <point x="653" y="462"/>
      <point x="658" y="412" type="curve" smooth="yes"/>
      <point x="660" y="395"/>
      <point x="660" y="385"/>
      <point x="660" y="375" type="curve" smooth="yes"/>
      <point x="660" y="0" type="line"/>
      <point x="800" y="0" type="line"/>
      <point x="800" y="405" type="line" smooth="yes"/>
      <point x="800" y="452"/>
      <point x="797" y="497"/>
      <point x="774" y="536" type="curve" smooth="yes"/>
      <point x="744" y="590"/>
      <point x="687" y="615"/>
      <point x="617" y="615" type="curve" smooth="yes"/>
      <point x="530" y="615"/>
      <point x="463" y="579"/>
      <point x="422" y="498" type="curve"/>
    </contour>
  </outline>
</glyph>
<glyph name="n" format="1">
  <advance width="554"/>
  <unicode hex="006E"/>
  <outline>
    <contour>
      <point x="51" y="605" type="line"/>
      <point x="51" y="0" type="line"/>
      <point x="191" y="0" type="line"/>
      <point x="191" y="605" type="line"/>
    </contour>
    <contour>
      <point x="191" y="340" type="line"/>
      <point x="191" y="356"/>
      <point x="192" y="400"/>
      <point x="193" y="412" type="curve" smooth="yes"/>
      <point x="195" y="452"/>
      <point x="221" y="492"/>
      <point x="278" y="492" type="curve" smooth="yes"/>
      <point x="322" y="492"/>
      <point x="354" y="462"/>
      <point x="359" y="412" type="curve" smooth="yes"/>
      <point x="361" y="395"/>
      <point x="361" y="385"/>
      <point x="361" y="375" type="curve" smooth="yes"/>
      <point x="361" y="0" type="line"/>
      <point x="501" y="0" type="line"/>
      <point x="501" y="405" type="line" smooth="yes"/>
      <point x="501" y="452"/>
      <point x="497" y="497"/>
      <point x="475" y="536" type="curve" smooth="yes"/>
      <point x="445" y="590"/>
      <point x="388" y="615"/>
      <point x="318" y="615" type="curve" smooth="yes"/>
      <point x="243" y="615"/>
      <point x="186" y="579"/>
      <point x="136" y="498" type="curve"/>
    </contour>
  </outline>
</glyph>
<glyph name="o" format="1">
  <advance width="560"/>
  <unicode hex="006F"/>
  <outline>
    <contour>
      <point x="103" y="58" type="curve" smooth="yes"/>
      <point x="62" y="102"/>
      <point x="50" y="160"/>
      <point x="50" y="240" type="curve" smooth="yes"/>
      <point x="50" y="365" type="line" smooth="yes"/>
      <point x="50" y="445"/>
      <point x="63" y="502"/>
      <point x="104" y="546" type="curve" smooth="yes"/>
      <point x="147" y="593"/>
      <point x="209" y="615"/>
      <point x="280" y="615" type="curve" smooth="yes"/>
      <point x="351" y="615"/>
      <point x="413" y="593"/>
      <point x="456" y="546" type="curve" smooth="yes"/>
      <point x="497" y="502"/>
      <point x="510" y="445"/>
      <point x="510" y="365" type="curve" smooth="yes"/>
      <point x="510" y="240" type="line" smooth="yes"/>
      <point x="510" y="160"/>
      <point x="498" y="102"/>
      <point x="457" y="58" type="curve" smooth="yes"/>
      <point x="414" y="11"/>
      <point x="351" y="-10"/>
      <point x="280" y="-10" type="curve" smooth="yes"/>
      <point x="209" y="-10"/>
      <point x="146" y="11"/>
    </contour>
    <contour>
      <point x="370" y="385" type="line"/>
      <point x="370" y="406"/>
      <point x="368" y="430"/>
      <point x="360" y="446" type="curve" smooth="yes"/>
      <point x="345" y="478"/>
      <point x="314" y="492"/>
      <point x="280" y="492" type="curve" smooth="yes"/>
      <point x="246" y="492"/>
      <point x="215" y="478"/>
      <point x="200" y="446" type="curve" smooth="yes"/>
      <point x="192" y="430"/>
      <point x="190" y="406"/>
      <point x="190" y="385" type="curve" smooth="yes"/>
      <point x="190" y="220" type="line" smooth="yes"/>
      <point x="190" y="199"/>
      <point x="192" y="175"/>
      <point x="200" y="159" type="curve" smooth="yes"/>
      <point x="215" y="127"/>
      <point x="246" y="113"/>
      <point x="280" y="113" type="curve" smooth="yes"/>
      <point x="314" y="113"/>
      <point x="345" y="127"/>
      <point x="360" y="159" type="curve" smooth="yes"/>
      <point x="368" y="175"/>
      <point x="370" y="199"/>
      <point x="370" y="220" type="curve" smooth="yes"/>
    </contour>
  </outline>
</glyph>
<glyph name="p" format="1">
  <advance width="581"/>
  <unicode hex="0070"/>
  <outline>
    <contour>
      <point x="60" y="605" type="line"/>
      <point x="60" y="-250" type="line"/>
      <point x="200" y="-250" type="line"/>
      <point x="200" y="605" type="line"/>
    </contour>
    <contour>
      <point x="390" y="390" type="curve"/>
      <point x="390" y="215" type="line"/>
      <point x="389" y="203"/>
      <point x="388" y="178"/>
      <point x="381" y="163" type="curve" smooth="yes"/>
      <point x="367" y="132"/>
      <point x="337" y="113"/>
      <point x="300" y="113" type="curve" smooth="yes"/>
      <point x="236" y="113"/>
      <point x="200" y="151"/>
      <point x="200" y="200" type="curve"/>
      <point x="140" y="200" type="line"/>
      <point x="137" y="68"/>
      <point x="223" y="-10"/>
      <point x="330" y="-10" type="curve" smooth="yes"/>
      <point x="405" y="-10"/>
      <point x="475" y="19"/>
      <point x="509" y="83" type="curve" smooth="yes"/>
      <point x="525" y="114"/>
      <point x="531" y="158"/>
      <point x="530" y="200" type="curve"/>
      <point x="530" y="405" type="line"/>
      <point x="531" y="447"/>
      <point x="525" y="491"/>
      <point x="509" y="522" type="curve" smooth="yes"/>
      <point x="475" y="586"/>
      <point x="405" y="615"/>
      <point x="330" y="615" type="curve" smooth="yes"/>
      <point x="223" y="615"/>
      <point x="137" y="537"/>
      <point x="140" y="405" type="curve"/>
      <point x="200" y="405" type="line"/>
      <point x="200" y="454"/>
      <point x="236" y="492"/>
      <point x="300" y="492" type="curve" smooth="yes"/>
      <point x="337" y="492"/>
      <point x="367" y="473"/>
      <point x="381" y="442" type="curve" smooth="yes"/>
      <point x="388" y="427"/>
      <point x="389" y="402"/>
    </contour>
  </outline>
</glyph>
<glyph name="q" format="1">
  <advance width="581"/>
  <unicode hex="0071"/>
  <outline>
    <contour>
      <point x="521" y="605" type="line"/>
      <point x="521" y="-250" type="line"/>
      <point x="381" y="-250" type="line"/>
      <point x="381" y="605" type="line"/>
    </contour>
    <contour>
      <point x="191" y="390" type="curve"/>
      <point x="191" y="215" type="line"/>
      <point x="192" y="203"/>
      <point x="193" y="178"/>
      <point x="200" y="163" type="curve" smooth="yes"/>
      <point x="214" y="132"/>
      <point x="244" y="113"/>
      <point x="281" y="113" type="curve" smooth="yes"/>
      <point x="345" y="113"/>
      <point x="381" y="151"/>
      <point x="381" y="200" type="curve"/>
      <point x="441" y="200" type="line"/>
      <point x="444" y="68"/>
      <point x="358" y="-10"/>
      <point x="251" y="-10" type="curve" smooth="yes"/>
      <point x="176" y="-10"/>
      <point x="106" y="19"/>
      <point x="72" y="83" type="curve" smooth="yes"/>
      <point x="56" y="114"/>
      <point x="50" y="158"/>
      <point x="51" y="200" type="curve"/>
      <point x="51" y="405" type="line"/>
      <point x="50" y="447"/>
      <point x="56" y="491"/>
      <point x="72" y="522" type="curve" smooth="yes"/>
      <point x="106" y="586"/>
      <point x="176" y="615"/>
      <point x="251" y="615" type="curve" smooth="yes"/>
      <point x="358" y="615"/>
      <point x="444" y="537"/>
      <point x="441" y="405" type="curve"/>
      <point x="381" y="405" type="line"/>
      <point x="381" y="454"/>
      <point x="345" y="492"/>
      <point x="281" y="492" type="curve" smooth="yes"/>
      <point x="244" y="492"/>
      <point x="214" y="473"/>
      <point x="200" y="442" type="curve" smooth="yes"/>
      <point x="193" y="427"/>
      <point x="192" y="402"/>
    </contour>
  </outline>
</glyph>
<glyph name="r" format="1">
  <advance width="365"/>
  <unicode hex="0072"/>
  <outline>
    <contour>
      <point x="60" y="605" type="line"/>
      <point x="60" y="0" type="line"/>
      <point x="200" y="0" type="line"/>
      <point x="200" y="605" type="line"/>
    </contour>
    <contour>
      <point x="200" y="382" type="line"/>
      <point x="200" y="419"/>
      <point x="210" y="446"/>
      <point x="230" y="463" type="curve" smooth="yes"/>
      <point x="252" y="481"/>
      <point x="280" y="482"/>
      <point x="305" y="482" type="curve"/>
      <point x="317" y="615" type="line"/>
      <point x="228" y="615"/>
      <point x="135" y="537"/>
      <point x="138" y="405" type="curve"/>
    </contour>
    <contour>
      <point x="305" y="482" type="line"/>
      <point x="365" y="482" type="line"/>
      <point x="365" y="615" type="line"/>
      <point x="317" y="615" type="line"/>
    </contour>
  </outline>
</glyph>
<glyph name="s" format="1">
  <advance width="498"/>
  <unicode hex="0073"/>
  <outline>
    <contour>
      <point x="468" y="177" type="curve" smooth="yes"/>
      <point x="468" y="315"/>
      <point x="362" y="345"/>
      <point x="265" y="369" type="curve" smooth="yes"/>
      <point x="199" y="388"/>
      <point x="176" y="401"/>
      <point x="176" y="436" type="curve" smooth="yes"/>
      <point x="176" y="460"/>
      <point x="200" y="492"/>
      <point x="254" y="492" type="curve" smooth="yes"/>
      <point x="297" y="492"/>
      <point x="330" y="461"/>
      <point x="330" y="425" type="curve" smooth="yes"/>
      <point x="461" y="425" type="line" smooth="yes"/>
      <point x="461" y="542"/>
      <point x="370" y="615"/>
      <point x="255" y="615" type="curve" smooth="yes"/>
      <point x="137" y="615"/>
      <point x="33" y="549"/>
      <point x="33" y="423" type="curve" smooth="yes"/>
      <point x="33" y="303"/>
      <point x="124" y="264"/>
      <point x="205" y="242" type="curve" smooth="yes"/>
      <point x="275" y="221"/>
      <point x="327" y="214"/>
      <point x="327" y="166" type="curve" smooth="yes"/>
      <point x="327" y="136"/>
      <point x="302" y="113"/>
      <point x="249" y="113" type="curve" smooth="yes"/>
      <point x="200" y="113"/>
      <point x="168" y="141"/>
      <point x="168" y="175" type="curve" smooth="yes"/>
      <point x="30" y="175" type="line" smooth="yes"/>
      <point x="30" y="58"/>
      <point x="117" y="-10"/>
      <point x="241" y="-10" type="curve" smooth="yes"/>
      <point x="370" y="-10"/>
      <point x="468" y="57"/>
    </contour>
  </outline>
</glyph>
<glyph name="t" format="1">
  <advance width="395"/>
  <unicode hex="0074"/>
  <outline>
    <contour>
      <point x="8" y="492" type="line"/>
      <point x="347" y="492" type="line"/>
      <point x="347" y="605" type="line"/>
      <point x="8" y="605" type="line"/>
    </contour>
    <contour>
      <point x="240" y="230" type="curve"/>
      <point x="240" y="760" type="line"/>
      <point x="100" y="760" type="line"/>
      <point x="100" y="231" type="line" smooth="yes"/>
      <point x="100" y="190"/>
      <point x="101" y="121"/>
      <point x="124" y="79" type="curve" smooth="yes"/>
      <point x="145" y="41"/>
      <point x="179" y="17"/>
      <point x="228" y="6" type="curve" smooth="yes"/>
      <point x="254" y="0"/>
      <point x="300" y="0"/>
      <point x="330" y="0" type="curve" smooth="yes"/>
      <point x="348" y="0" type="line"/>
      <point x="348" y="123" type="line"/>
      <point x="347" y="123" type="line" smooth="yes"/>
      <point x="312" y="123"/>
      <point x="288" y="125"/>
      <point x="273" y="136" type="curve"/>
      <point x="243" y="155"/>
      <point x="241" y="196"/>
    </contour>
  </outline>
</glyph>
<glyph name="u" format="1">
  <advance width="549"/>
  <unicode hex="0075"/>
  <outline>
    <contour>
      <point x="498" y="0" type="line"/>
      <point x="498" y="605" type="line"/>
      <point x="358" y="605" type="line"/>
      <point x="358" y="0" type="line"/>
    </contour>
    <contour>
      <point x="358" y="265" type="line"/>
      <point x="358" y="249"/>
      <point x="357" y="205"/>
      <point x="356" y="193" type="curve" smooth="yes"/>
      <point x="354" y="153"/>
      <point x="328" y="113"/>
      <point x="271" y="113" type="curve" smooth="yes"/>
      <point x="227" y="113"/>
      <point x="195" y="143"/>
      <point x="190" y="193" type="curve" smooth="yes"/>
      <point x="188" y="210"/>
      <point x="188" y="220"/>
      <point x="188" y="230" type="curve" smooth="yes"/>
      <point x="188" y="605" type="line"/>
      <point x="48" y="605" type="line"/>
      <point x="48" y="200" type="line" smooth="yes"/>
      <point x="48" y="153"/>
      <point x="52" y="108"/>
      <point x="74" y="69" type="curve" smooth="yes"/>
      <point x="104" y="15"/>
      <point x="161" y="-10"/>
      <point x="231" y="-10" type="curve" smooth="yes"/>
      <point x="306" y="-10"/>
      <point x="363" y="26"/>
      <point x="413" y="107" type="curve"/>
    </contour>
  </outline>
</glyph>
<glyph name="v" format="1">
  <advance width="480"/>
  <unicode hex="0076"/>
  <outline>
    <contour>
      <point x="122" y="605" type="line"/>
      <point x="292" y="0" type="line"/>
      <point x="151" y="0" type="line"/>
      <point x="-19" y="605" type="line"/>
    </contour>
    <contour>
      <point x="358" y="605" type="line"/>
      <point x="499" y="605" type="line"/>
      <point x="329" y="0" type="line"/>
      <point x="188" y="0" type="line"/>
    </contour>
  </outline>
</glyph>
<glyph name="w" format="1">
  <advance width="790"/>
  <unicode hex="0077"/>
  <outline>
    <contour>
      <point x="480" y="605" type="line"/>
      <point x="605" y="0" type="line"/>
      <point x="485" y="0" type="line"/>
      <point x="355" y="605" type="line"/>
    </contour>
    <contour>
      <point x="644" y="605" type="line"/>
      <point x="785" y="605" type="line"/>
      <point x="645" y="0" type="line"/>
      <point x="510" y="0" type="line"/>
    </contour>
    <contour>
      <point x="146" y="605" type="line"/>
      <point x="280" y="0" type="line"/>
      <point x="145" y="0" type="line"/>
      <point x="5" y="605" type="line"/>
    </contour>
    <contour>
      <point x="310" y="605" type="line"/>
      <point x="435" y="605" type="line"/>
      <point x="305" y="0" type="line"/>
      <point x="185" y="0" type="line"/>
    </contour>
  </outline>
</glyph>
<glyph name="x" format="1">
  <advance width="516"/>
  <unicode hex="0078"/>
  <outline>
    <contour>
      <point x="150" y="605" type="line"/>
      <point x="344" y="299" type="line"/>
      <point x="184" y="299" type="line"/>
      <point x="-10" y="605" type="line"/>
    </contour>
    <contour>
      <point x="334" y="329" type="line"/>
      <point x="525" y="0" type="line"/>
      <point x="365" y="0" type="line"/>
      <point x="174" y="329" type="line"/>
    </contour>
    <contour>
      <point x="531" y="605" type="line"/>
      <point x="337" y="299" type="line"/>
      <point x="177" y="299" type="line"/>
      <point x="371" y="605" type="line"/>
    </contour>
    <contour>
      <point x="341" y="329" type="line"/>
      <point x="150" y="0" type="line"/>
      <point x="-10" y="0" type="line"/>
      <point x="181" y="329" type="line"/>
    </contour>
  </outline>
</glyph>
<glyph name="y" format="1">
  <advance width="481"/>
  <unicode hex="0079"/>
  <outline>
    <contour>
      <point x="367" y="605" type="line"/>
      <point x="509" y="605" type="line"/>
      <point x="310" y="-69" type="line"/>
      <point x="168" y="-69" type="line"/>
    </contour>
    <contour>
      <point x="310" y="-69" type="line"/>
      <point x="300" y="-100"/>
      <point x="293" y="-136"/>
      <point x="278" y="-165" type="curve" smooth="yes"/>
      <point x="257" y="-206"/>
      <point x="228" y="-233"/>
      <point x="174" y="-248" type="curve" smooth="yes"/>
      <point x="148" y="-255"/>
      <point x="112" y="-260"/>
      <point x="82" y="-260" type="curve" smooth="yes"/>
      <point x="32" y="-260" type="line"/>
      <point x="32" y="-126" type="line"/>
      <point x="52" y="-126" type="line" smooth="yes"/>
      <point x="103" y="-126"/>
      <point x="158" y="-113"/>
      <point x="158" y="-59" type="curve" smooth="yes"/>
      <point x="158" y="-21"/>
      <point x="136" y="46"/>
      <point x="125" y="86" type="curve" smooth="yes"/>
      <point x="108" y="149"/>
      <point x="-14" y="605"/>
      <point x="-14" y="605" type="curve"/>
      <point x="128" y="605" type="line"/>
    </contour>
  </outline>
</glyph>
<glyph name="z" format="1">
  <advance width="489"/>
  <unicode hex="007A"/>
  <outline>
    <contour>
      <point x="454" y="605" type="line"/>
      <point x="454" y="520" type="line"/>
      <point x="206" y="125" type="line"/>
      <point x="206" y="0" type="line"/>
      <point x="25" y="0" type="line"/>
      <point x="25" y="85" type="line"/>
      <point x="272" y="480" type="line"/>
      <point x="273" y="605" type="line"/>
    </contour>
    <contour>
      <point x="35" y="605" type="line"/>
      <point x="320" y="605" type="line"/>
      <point x="320" y="480" type="line"/>
      <point x="35" y="480" type="line"/>
    </contour>
    <contour>
      <point x="159" y="125" type="line"/>
      <point x="464" y="125" type="line"/>
      <point x="464" y="0" type="line"/>
      <point x="159" y="0" type="line"/>
    </contour>
  </outline>
</glyph>
<glyph name="dieresis" format="1">
  <advance width="520"/>
  <unicode hex="00A8"/>
  <outline>
    <contour>
      <point x="110" y="720" type="curve" smooth="yes"/>
      <point x="110" y="687"/>
      <point x="140" y="659"/>
      <point x="179" y="659" type="curve" smooth="yes"/>
      <point x="218" y="659"/>
      <point x="249" y="687"/>
      <point x="249" y="720" type="curve" smooth="yes"/>
      <point x="249" y="753"/>
      <point x="218" y="781"/>
      <point x="179" y="781" type="curve" smooth="yes"/>
      <point x="140" y="781"/>
      <point x="110" y="753"/>
    </contour>
    <contour>
      <point x="289" y="720" type="curve" smooth="yes"/>
      <point x="289" y="687"/>
      <point x="319" y="659"/>
      <point x="358" y="659" type="curve" smooth="yes"/>
      <point x="397" y="659"/>
      <point x="428" y="687"/>
      <point x="428" y="720" type="curve" smooth="yes"/>
      <point x="428" y="753"/>
      <point x="397" y="781"/>
      <point x="358" y="781" type="curve" smooth="yes"/>
      <point x="319" y="781"/>
      <point x="289" y="753"/>
    </contour>
  </outline>
</glyph>
<glyph name="acute" format="1">
  <advance width="520"/>
  <unicode hex="00B4"/>
  <outline>
    <contour>
      <point x="197" y="635" type="line"/>
      <point x="327" y="635" type="line"/>
      <point x="413" y="800" type="line"/>
      <point x="263" y="800" type="line"/>
    </contour>
  </outline>
</glyph>
<glyph name="circumflex" format="1">
  <advance width="520"/>
  <unicode hex="02C6"/>
  <outline>
    <contour>
      <point x="179" y="800" type="line"/>
      <point x="279" y="800" type="line"/>
      <point x="243" y="635" type="line"/>
      <point x="113" y="635" type="line"/>
    </contour>
    <contour>
      <point x="428" y="635" type="line"/>
      <point x="298" y="635" type="line"/>
      <point x="262" y="800" type="line"/>
      <point x="362" y="800" type="line"/>
    </contour>
  </outline>
</glyph>
<glyph name="emdash" format="1">
  <advance width="520"/>
  <unicode hex="2014"/>
  <outline>
    <contour>
      <point x="470" y="250" type="line"/>
      <point x="470" y="390" type="line"/>
      <point x="50" y="390" type="line"/>
      <point x="50" y="250" type="line"/>
    </contour>
  </outline>
</glyph>
<glyph name="quoteleft" format="1">
  <advance width="308"/>
  <unicode hex="2018"/>
  <outline>
    <contour>
      <point x="278" y="800" type="line"/>
      <point x="140" y="800" type="line"/>
      <point x="40" y="521" type="line"/>
      <point x="198" y="521" type="line"/>
    </contour>
  </outline>
</glyph>
<glyph name="quoteright" format="1">
  <advance width="308"/>
  <unicode hex="2019"/>
  <outline>
    <contour>
      <point x="30" y="521" type="line"/>
      <point x="168" y="521" type="line"/>
      <point x="268" y="800" type="line"/>
      <point x="110" y="800" type="line"/>
    </contour>
  </outline>
</glyph>
<glyph name="quotedblleft" format="1">
  <advance width="486"/>
  <unicode hex="201C"/>
  <outline>
    <contour>
      <point x="30" y="521" type="line"/>
      <point x="148" y="521" type="line"/>
      <point x="248" y="800" type="line"/>
      <point x="90" y="800" type="line"/>
    </contour>
    <contour>
      <point x="208" y="521" type="line"/>
      <point x="326" y="521" type="line"/>
      <point x="446" y="800" type="line"/>
      <point x="288" y="800" type="line"/>
    </contour>
  </outline>
</glyph>
<glyph name="quotedblright" format="1">
  <advance width="486"/>
  <unicode hex="201D"/>
  <outline>
    <contour>
      <point x="456" y="800" type="line"/>
      <point x="338" y="800" type="line"/>
      <point x="238" y="521" type="line"/>
      <point x="396" y="521" type="line"/>
    </contour>
    <contour>
      <point x="278" y="800" type="line"/>
      <point x="160" y="800" type="line"/>
      <point x="40" y="521" type="line"/>
      <point x="198" y="521" type="line"/>
    </contour>
  </outline>
</glyph>
<glyph name="interpolation.100" format="1">
  <advance width="791"/>
  <outline>
    <contour>
      <point x="750" y="686" type="line"/>
      <point x="50" y="686" type="line"/>
      <point x="50" y="832" type="line"/>
      <point x="750" y="832" type="line"/>
    </contour>
    <contour>
      <point x="474" y="0" type="line"/>
      <point x="328" y="0" type="line"/>
      <point x="328" y="822" type="line"/>
      <point x="474" y="822" type="line"/>
    </contour>
  </outline>
</glyph>
<glyph name="interpolation.25" format="1">
  <advance width="648"/>
  <outline>
    <contour>
      <point x="638" y="686" type="line"/>
      <point x="13" y="686" type="line"/>
      <point x="13" y="832" type="line"/>
      <point x="638" y="832" type="line"/>
    </contour>
    <contour>
      <point x="399" y="0" type="line"/>
      <point x="253" y="0" type="line"/>
      <point x="253" y="822" type="line"/>
      <point x="399" y="822" type="line"/>
    </contour>
  </outline>
</glyph>
<glyph name="interpolation.50" format="1">
  <advance width="696"/>
  <outline>
    <contour>
      <point x="675" y="686" type="line"/>
      <point x="25" y="686" type="line"/>
      <point x="25" y="832" type="line"/>
      <point x="675" y="832" type="line"/>
    </contour>
    <contour>
      <point x="424" y="0" type="line"/>
      <point x="278" y="0" type="line"/>
      <point x="278" y="822" type="line"/>
      <point x="424" y="822" type="line"/>
    </contour>
  </outline>
</glyph>
<glyph name="interpolation.75" format="1">
  <advance width="743"/>
  <outline>
    <contour>
      <point x="713" y="686" type="line"/>
      <point x="38" y="686" type="line"/>
      <point x="38" y="832" type="line"/>
      <point x="713" y="832" type="line"/>
    </contour>
    <contour>
      <point x="449" y="0" type="line"/>
      <point x="303" y="0" type="line"/>
      <point x="303" y="822" type="line"/>
      <point x="449" y="822" type="line"/>
    </contour>
  </outline>
</glyph>
